<svg width="138" height="139" viewBox="0 0 138 139" fill="none" xmlns="http://www.w3.org/2000/svg">
<path d="M138 114.483C138 122.832 79.8683 139 68.9749 139C58.0815 139 0 123.126 0 113.601C0 104.077 0.0960292 -47 0.0960292 -47H137.889C137.889 -47 138 106.194 138 114.483Z" fill="#EB2316"/>
<path d="M38.001 31.4349C38.001 26.523 39.9217 21.8989 43.4141 18.4099C46.8999 14.9208 51.524 13 56.4359 13H99V22.3678H56.4359C54.03 22.3678 51.7568 23.3153 50.0365 25.0323C48.3162 26.7558 47.3688 29.0291 47.3688 31.4349L47.3138 47.16C46.8773 51.3346 43.731 54.7073 39.6598 55.3281L38.001 55.5803V31.4349Z" fill="white"/>
<path d="M38 73.8761V64.5083H80.5642C82.97 64.5083 85.2432 63.5609 86.9603 61.8406C88.6806 60.1236 89.628 57.8503 89.628 55.4445L89.6377 40.5181C89.6377 36.0751 92.9489 32.2174 97.3402 31.5513L98.9958 31.299V55.4445C98.9958 60.3564 97.075 64.9805 93.5827 68.4663C90.0937 71.9554 85.4696 73.8761 80.5609 73.8761H38Z" fill="white"/>
<path d="M73.8795 55.6987V43.5049L68.5016 50.1797L63.1236 43.5049V55.6987H56V31.6987H62.7475L68.5016 39.4154L74.2525 31.6987H81V55.6987H73.8795Z" fill="white"/>
<path d="M33.3491 94.285C33.3381 94.307 33.3271 94.34 33.3271 94.362C33.3271 94.417 33.3711 94.472 33.4151 94.516C33.5581 94.67 34.0861 95.165 35.1751 95.165C35.9341 95.165 36.5721 94.934 37.0781 94.274C37.7051 93.46 37.8261 92.283 37.8261 91.249C37.8261 89.06 37.1881 87.278 35.3071 87.278C34.5701 87.278 34.0421 87.509 33.5471 87.938C33.4371 88.026 33.4041 88.092 33.4041 88.147C33.4041 88.18 33.4261 88.224 33.4481 88.257L33.8001 88.752C33.8331 88.807 33.8661 88.84 33.9101 88.84C33.9321 88.84 33.9541 88.829 33.9871 88.807L34.1191 88.708C34.3941 88.488 34.7131 88.246 35.1861 88.246C36.3081 88.246 36.5501 89.577 36.5501 90.479V90.589H34.5701C34.4601 90.589 34.3831 90.622 34.3831 90.776V91.403C34.3831 91.546 34.4381 91.579 34.5591 91.579H36.5501V91.722C36.5501 92.283 36.4841 94.197 35.0871 94.197C34.6801 94.197 34.4051 94.054 34.0421 93.79L33.9211 93.702C33.8881 93.669 33.8441 93.658 33.8111 93.658C33.7671 93.658 33.7341 93.68 33.6901 93.746L33.3491 94.285ZM40.4469 95C40.5679 95 40.6229 94.945 40.6229 94.824V91.568H41.1729C41.6899 91.568 41.9649 91.733 42.1409 92.525L42.3939 93.702C42.6249 94.78 43.0759 95.165 44.0549 95.165C44.1979 95.165 44.2309 95.143 44.2639 95.033L44.4949 94.34C44.5059 94.318 44.5059 94.296 44.5059 94.274C44.5059 94.164 44.3739 94.153 44.3409 94.142L44.1319 94.109C43.8899 94.065 43.6809 94.131 43.4939 93.328L43.2299 92.217C43.0979 91.722 42.7349 91.216 42.2839 91.062C42.8339 90.831 43.0209 90.336 43.1199 89.874L43.2739 89.181C43.3619 88.763 43.4499 88.389 43.8789 88.312L44.0989 88.268C44.1869 88.246 44.2419 88.202 44.2419 88.125C44.2419 88.103 44.2419 88.081 44.2309 88.059L44.0439 87.421C44.0109 87.311 43.9229 87.289 43.8459 87.289C43.6039 87.289 43.0759 87.421 42.7569 87.74C42.4599 88.037 42.3719 88.433 42.2839 88.829L42.0969 89.698C41.9979 90.193 41.7229 90.578 41.1839 90.578H40.6229V87.597C40.6229 87.509 40.5679 87.454 40.4909 87.454H39.5339C39.4789 87.454 39.4239 87.498 39.4239 87.575V94.824C39.4239 94.967 39.4789 95 39.5999 95H40.4469ZM49.6136 94.23L49.2836 93.702C49.2506 93.647 49.2066 93.636 49.1736 93.636C49.1186 93.636 49.0746 93.669 49.0196 93.713C48.6456 93.999 48.3156 94.142 47.9636 94.142C46.9626 94.142 46.4786 93.108 46.4786 90.974C46.4786 89.126 46.9076 88.29 47.8316 88.29C48.3046 88.29 48.6346 88.543 48.9866 88.818C49.0196 88.851 49.0746 88.873 49.1186 88.873C49.1516 88.873 49.1956 88.862 49.2176 88.818L49.5696 88.257C49.6026 88.202 49.6246 88.158 49.6246 88.114C49.6246 88.059 49.5916 88.004 49.5146 87.938C49.0416 87.531 48.4036 87.278 47.7876 87.278C45.6866 87.278 45.1916 89.445 45.1916 91.139C45.1916 93.757 46.1156 95.165 47.8536 95.165C48.4586 95.165 48.9426 95.033 49.5476 94.549C49.6356 94.472 49.6686 94.428 49.6686 94.373C49.6686 94.329 49.6466 94.285 49.6136 94.23ZM51.8873 95C52.0083 95 52.0633 94.945 52.0633 94.824V91.568H52.6133C53.1303 91.568 53.4053 91.733 53.5813 92.525L53.8343 93.702C54.0653 94.78 54.5163 95.165 55.4953 95.165C55.6383 95.165 55.6713 95.143 55.7043 95.033L55.9353 94.34C55.9463 94.318 55.9463 94.296 55.9463 94.274C55.9463 94.164 55.8143 94.153 55.7813 94.142L55.5723 94.109C55.3303 94.065 55.1213 94.131 54.9343 93.328L54.6703 92.217C54.5383 91.722 54.1753 91.216 53.7243 91.062C54.2743 90.831 54.4613 90.336 54.5603 89.874L54.7143 89.181C54.8023 88.763 54.8903 88.389 55.3193 88.312L55.5393 88.268C55.6273 88.246 55.6823 88.202 55.6823 88.125C55.6823 88.103 55.6823 88.081 55.6713 88.059L55.4843 87.421C55.4513 87.311 55.3633 87.289 55.2863 87.289C55.0443 87.289 54.5163 87.421 54.1973 87.74C53.9003 88.037 53.8123 88.433 53.7243 88.829L53.5373 89.698C53.4383 90.193 53.1633 90.578 52.6243 90.578H52.0633V87.597C52.0633 87.509 52.0083 87.454 51.9313 87.454H50.9743C50.9193 87.454 50.8643 87.498 50.8643 87.575V94.824C50.8643 94.967 50.9193 95 51.0403 95H51.8873ZM61.8209 87.63C61.8209 87.487 61.7659 87.454 61.6449 87.454H58.0149C57.9049 87.454 57.8499 87.487 57.8499 87.619V88.763C57.8499 90.49 57.9049 93.108 57.2119 93.779C56.9699 94.01 56.6619 94.087 56.4639 94.109L56.2989 94.131C56.2109 94.142 56.1449 94.197 56.1449 94.296C56.1449 94.318 56.1559 94.34 56.1559 94.362L56.3209 95.011C56.3429 95.11 56.3759 95.165 56.5409 95.165C58.2349 95.165 58.6419 93.262 58.7629 92.217C58.8619 91.293 58.8949 90.303 58.9059 89.511L58.9169 88.444H60.6109V94.824C60.6109 94.967 60.6659 95 60.7869 95H61.6449C61.7659 95 61.8209 94.945 61.8209 94.824V87.63ZM65.0939 90.6V87.63C65.0939 87.465 65.0169 87.454 64.9069 87.454H64.0819C63.9609 87.454 63.8839 87.465 63.8839 87.63V94.835C63.8839 94.978 63.9609 95 64.0709 95H64.9399C65.0829 95 65.0939 94.901 65.0939 94.813V91.59H66.1939C66.2269 93.119 66.7989 95.165 68.8119 95.165C71.1769 95.165 71.3859 92.294 71.3859 91.238C71.3859 90.303 71.2429 87.278 68.8119 87.278C66.6339 87.278 66.2599 89.632 66.2049 90.6H65.0939ZM68.7679 94.197C68.4379 94.197 68.1849 94.098 67.9759 93.878C67.6789 93.57 67.4259 92.899 67.4259 91.216C67.4259 89.511 67.7229 88.84 68.0199 88.543C68.1409 88.422 68.3829 88.246 68.7679 88.246C69.0759 88.246 69.3179 88.356 69.5049 88.543C69.8019 88.84 70.0989 89.5 70.0989 91.227C70.0989 93.185 69.7139 93.724 69.5049 93.922C69.2519 94.164 68.9439 94.197 68.7679 94.197ZM73.5765 91.425C73.5765 91.568 73.6315 91.601 73.7525 91.601H74.1705C74.7865 91.601 75.5235 91.898 75.5235 92.844C75.5235 93.317 75.4025 94.175 74.1925 94.175C73.6425 94.175 73.2355 93.922 72.9165 93.702L72.8065 93.625C72.7515 93.581 72.6965 93.57 72.6635 93.57C72.6195 93.57 72.5975 93.581 72.5755 93.614L72.2345 94.208C72.2125 94.241 72.2125 94.263 72.2125 94.296C72.2125 94.505 72.6635 94.78 72.9605 94.912C73.4115 95.121 73.8735 95.165 74.3575 95.165C74.9295 95.165 75.6225 95.088 76.1835 94.505C76.6785 93.988 76.7665 93.361 76.7665 92.877C76.7665 92.239 76.5355 91.37 75.4355 91.007C76.3265 90.71 76.5465 89.929 76.5465 89.313C76.5465 88.631 76.2715 87.278 74.4125 87.278C73.5655 87.278 72.9055 87.586 72.4875 88.026C72.4215 88.092 72.3885 88.147 72.3885 88.202C72.3885 88.246 72.4105 88.279 72.4435 88.334L72.7515 88.774C72.7845 88.818 72.8285 88.84 72.8835 88.84C72.9275 88.84 72.9715 88.829 73.0045 88.796L73.1255 88.697C73.4665 88.422 73.7855 88.268 74.2145 88.268C74.9735 88.268 75.3585 88.851 75.3585 89.445C75.3585 89.72 75.3035 90.05 75.0395 90.314C74.7315 90.611 74.3245 90.633 74.0605 90.633H73.7525C73.6315 90.633 73.5765 90.688 73.5765 90.809V91.425ZM83.4658 87.63C83.4658 87.509 83.4328 87.454 83.2898 87.454H82.3108C82.2778 87.454 82.1898 87.465 82.1348 87.575L80.1438 91.777C80.0008 92.074 79.7258 92.822 79.6378 93.042H79.6048C79.6598 92.272 79.6818 92.03 79.6818 91.777V87.63C79.6818 87.509 79.6488 87.454 79.5058 87.454H78.6478C78.5048 87.454 78.4718 87.509 78.4718 87.63V94.824C78.4718 94.945 78.5268 95 78.6478 95H79.5278C79.6708 95 79.6928 94.945 79.7368 94.846L81.8488 90.446C82.0468 90.039 82.1788 89.731 82.2998 89.291H82.3328C82.2888 89.632 82.2558 90.017 82.2558 90.391V94.824C82.2558 94.967 82.3108 95 82.4318 95H83.2898C83.4108 95 83.4658 94.967 83.4658 94.824V87.63ZM90.1604 92.888C90.1604 91.975 89.7204 91.304 88.7964 91.051C89.5334 90.699 89.8854 90.149 89.8854 89.324C89.8854 88.774 89.6764 88.246 89.3354 87.916C88.9614 87.553 88.5654 87.454 87.5094 87.454H85.7054C85.5404 87.454 85.5294 87.476 85.5294 87.641V94.813C85.5294 94.978 85.5404 95 85.7054 95H87.4434C88.1694 95 88.3344 94.989 88.7084 94.901C89.5774 94.714 90.1604 93.889 90.1604 92.888ZM88.6534 89.456C88.6534 90.281 88.2464 90.688 87.3994 90.688H86.6844V88.367H87.4874C88.3124 88.367 88.6534 88.686 88.6534 89.456ZM88.9174 92.833C88.9174 93.669 88.4774 94.032 87.4874 94.032H86.6844V91.612H87.4654C88.4664 91.612 88.9174 92.008 88.9174 92.833ZM96.675 94.813V87.641C96.675 87.476 96.642 87.454 96.477 87.454H95.652C95.487 87.454 95.465 87.476 95.465 87.641V90.611H93.045V87.641C93.045 87.476 93.001 87.454 92.847 87.454H92.011C91.846 87.454 91.835 87.476 91.835 87.641V94.813C91.835 94.978 91.846 95 92.011 95H92.847C93.001 95 93.045 94.978 93.045 94.813V91.546H95.465V94.813C95.465 94.978 95.487 95 95.652 95H96.477C96.642 95 96.675 94.978 96.675 94.813ZM103.45 91.172C103.45 88.587 102.592 87.278 100.887 87.278C98.9623 87.278 98.2473 88.972 98.2473 91.183C98.2473 93.845 99.1053 95.165 100.81 95.165C102.548 95.165 103.45 93.812 103.45 91.172ZM102.163 91.216C102.163 93.273 101.756 94.197 100.843 94.197C99.8863 94.197 99.5343 93.097 99.5343 91.205C99.5343 89.181 99.9523 88.246 100.865 88.246C101.778 88.246 102.163 89.324 102.163 91.216ZM39.575 107.23L39.245 106.702C39.212 106.647 39.168 106.636 39.135 106.636C39.08 106.636 39.036 106.669 38.981 106.713C38.607 106.999 38.277 107.142 37.925 107.142C36.924 107.142 36.44 106.108 36.44 103.974C36.44 102.126 36.869 101.29 37.793 101.29C38.266 101.29 38.596 101.543 38.948 101.818C38.981 101.851 39.036 101.873 39.08 101.873C39.113 101.873 39.157 101.862 39.179 101.818L39.531 101.257C39.564 101.202 39.586 101.158 39.586 101.114C39.586 101.059 39.553 101.004 39.476 100.938C39.003 100.531 38.365 100.278 37.749 100.278C35.648 100.278 35.153 102.445 35.153 104.139C35.153 106.757 36.077 108.165 37.815 108.165C38.42 108.165 38.904 108.033 39.509 107.549C39.597 107.472 39.63 107.428 39.63 107.373C39.63 107.329 39.608 107.285 39.575 107.23ZM47.2651 100.674C47.2761 100.63 47.2871 100.586 47.2871 100.553C47.2871 100.487 47.2541 100.454 47.1111 100.454H43.5691C43.4041 100.454 43.3931 100.476 43.3931 100.641V107.813C43.3931 107.978 43.4041 108 43.5691 108H47.0561C47.2211 108 47.2431 107.978 47.2431 107.813V107.197C47.2431 107.032 47.2211 106.999 47.0561 106.999H44.6031V104.546H46.5941C46.7481 104.546 46.7811 104.524 46.7811 104.37V103.776C46.7811 103.611 46.7481 103.589 46.5941 103.589H44.6031V101.444H46.8691C46.9791 101.444 47.0451 101.4 47.0781 101.29L47.2651 100.674ZM49.7013 108C49.8223 108 49.8773 107.945 49.8773 107.824V104.568H50.4273C50.9443 104.568 51.2193 104.733 51.3953 105.525L51.6483 106.702C51.8793 107.78 52.3303 108.165 53.3093 108.165C53.4523 108.165 53.4853 108.143 53.5183 108.033L53.7493 107.34C53.7603 107.318 53.7603 107.296 53.7603 107.274C53.7603 107.164 53.6283 107.153 53.5953 107.142L53.3863 107.109C53.1443 107.065 52.9353 107.131 52.7483 106.328L52.4843 105.217C52.3523 104.722 51.9893 104.216 51.5383 104.062C52.0883 103.831 52.2753 103.336 52.3743 102.874L52.5283 102.181C52.6163 101.763 52.7043 101.389 53.1333 101.312L53.3533 101.268C53.4413 101.246 53.4963 101.202 53.4963 101.125C53.4963 101.103 53.4963 101.081 53.4853 101.059L53.2983 100.421C53.2653 100.311 53.1773 100.289 53.1003 100.289C52.8583 100.289 52.3303 100.421 52.0113 100.74C51.7143 101.037 51.6263 101.433 51.5383 101.829L51.3513 102.698C51.2523 103.193 50.9773 103.578 50.4383 103.578H49.8773V100.597C49.8773 100.509 49.8223 100.454 49.7453 100.454H48.7883C48.7333 100.454 48.6783 100.498 48.6783 100.575V107.824C48.6783 107.967 48.7333 108 48.8543 108H49.7013ZM59.8045 107.725L57.6155 100.608C57.5715 100.465 57.5715 100.454 57.4175 100.454H56.5155C56.3725 100.454 56.3615 100.465 56.3175 100.608L54.1285 107.725C54.1065 107.78 54.0955 107.846 54.0955 107.89C54.0955 107.956 54.1395 108 54.2825 108H55.1625C55.2945 108 55.3385 107.978 55.3715 107.846L55.9105 105.877H57.9565L58.4955 107.846C58.5285 107.978 58.5725 108 58.7045 108H59.6505C59.7935 108 59.8375 107.956 59.8375 107.879C59.8375 107.835 59.8265 107.78 59.8045 107.725ZM57.7035 104.975H56.0865L56.6585 102.764C56.7465 102.401 56.8235 102.016 56.9005 101.554C56.9885 102.027 57.0655 102.412 57.1535 102.764L57.7035 104.975ZM64.4063 100.707C64.4283 100.641 64.4393 100.586 64.4393 100.553C64.4393 100.476 64.3953 100.454 64.2523 100.454H59.8303C59.6653 100.454 59.6433 100.476 59.6433 100.641V101.301C59.6433 101.466 59.6653 101.499 59.8303 101.499H61.3263V107.813C61.3263 107.978 61.3593 108 61.5243 108H62.3603C62.5253 108 62.5363 107.978 62.5363 107.813V101.499H64.0213C64.1423 101.499 64.1753 101.466 64.2083 101.345L64.4063 100.707ZM69.1148 100.674C69.1258 100.63 69.1368 100.586 69.1368 100.553C69.1368 100.487 69.1038 100.454 68.9608 100.454H65.4188C65.2538 100.454 65.2428 100.476 65.2428 100.641V107.813C65.2428 107.978 65.2538 108 65.4188 108H68.9058C69.0708 108 69.0928 107.978 69.0928 107.813V107.197C69.0928 107.032 69.0708 106.999 68.9058 106.999H66.4528V104.546H68.4438C68.5978 104.546 68.6308 104.524 68.6308 104.37V103.776C68.6308 103.611 68.5978 103.589 68.4438 103.589H66.4528V101.444H68.7188C68.8288 101.444 68.8948 101.4 68.9278 101.29L69.1148 100.674ZM74.8509 102.5C74.8509 101.235 74.3779 100.454 72.4419 100.454H70.7039C70.5389 100.454 70.5279 100.476 70.5279 100.641V107.813C70.5279 107.978 70.5389 108 70.7039 108H71.5399C71.6939 108 71.7379 107.978 71.7379 107.813V104.898H72.4529C73.8499 104.898 74.8509 104.073 74.8509 102.5ZM73.6629 102.555C73.6629 103.545 73.1679 103.886 72.2989 103.886H71.7379V101.389H72.3649C73.3329 101.389 73.6629 101.675 73.6629 102.555ZM81.1078 100.63C81.1078 100.509 81.0748 100.454 80.9318 100.454H79.9528C79.9198 100.454 79.8318 100.465 79.7768 100.575L77.7858 104.777C77.6428 105.074 77.3678 105.822 77.2798 106.042H77.2468C77.3018 105.272 77.3238 105.03 77.3238 104.777V100.63C77.3238 100.509 77.2908 100.454 77.1478 100.454H76.2898C76.1468 100.454 76.1138 100.509 76.1138 100.63V107.824C76.1138 107.945 76.1688 108 76.2898 108H77.1698C77.3128 108 77.3348 107.945 77.3788 107.846L79.4908 103.446C79.6888 103.039 79.8208 102.731 79.9418 102.291H79.9748C79.9308 102.632 79.8978 103.017 79.8978 103.391V107.824C79.8978 107.967 79.9528 108 80.0738 108H80.9318C81.0528 108 81.1078 107.967 81.1078 107.824V100.63ZM88.0115 107.813V100.641C88.0115 100.476 87.9785 100.454 87.8135 100.454H86.9885C86.8235 100.454 86.8015 100.476 86.8015 100.641V103.611H84.3815V100.641C84.3815 100.476 84.3375 100.454 84.1835 100.454H83.3475C83.1825 100.454 83.1715 100.476 83.1715 100.641V107.813C83.1715 107.978 83.1825 108 83.3475 108H84.1835C84.3375 108 84.3815 107.978 84.3815 107.813V104.546H86.8015V107.813C86.8015 107.978 86.8235 108 86.9885 108H87.8135C87.9785 108 88.0115 107.978 88.0115 107.813ZM94.7867 104.172C94.7867 101.587 93.9287 100.278 92.2237 100.278C90.2987 100.278 89.5837 101.972 89.5837 104.183C89.5837 106.845 90.4417 108.165 92.1467 108.165C93.8847 108.165 94.7867 106.812 94.7867 104.172ZM93.4997 104.216C93.4997 106.273 93.0927 107.197 92.1797 107.197C91.2227 107.197 90.8707 106.097 90.8707 104.205C90.8707 102.181 91.2887 101.246 92.2017 101.246C93.1147 101.246 93.4997 102.324 93.4997 104.216ZM101.378 100.63C101.378 100.509 101.345 100.454 101.202 100.454H100.223C100.19 100.454 100.102 100.465 100.047 100.575L98.0564 104.777C97.9134 105.074 97.6384 105.822 97.5504 106.042H97.5174C97.5724 105.272 97.5944 105.03 97.5944 104.777V100.63C97.5944 100.509 97.5614 100.454 97.4184 100.454H96.5604C96.4174 100.454 96.3844 100.509 96.3844 100.63V107.824C96.3844 107.945 96.4394 108 96.5604 108H97.4404C97.5834 108 97.6054 107.945 97.6494 107.846L99.7614 103.446C99.9594 103.039 100.091 102.731 100.212 102.291H100.245C100.201 102.632 100.168 103.017 100.168 103.391V107.824C100.168 107.967 100.223 108 100.344 108H101.202C101.323 108 101.378 107.967 101.378 107.824V100.63ZM98.1334 98.507C98.1224 98.452 98.1114 98.408 98.0344 98.408L97.2974 98.485C97.2094 98.496 97.1874 98.573 97.1874 98.65C97.1874 99.255 97.7594 100.036 98.9474 100.036C99.5634 100.036 100.586 99.618 100.586 98.639C100.586 98.562 100.564 98.496 100.476 98.485L99.7724 98.408H99.7504C99.6844 98.408 99.6514 98.452 99.6404 98.507L99.6184 98.617C99.5524 98.958 99.2884 99.255 98.9254 99.255C98.3094 99.255 98.1994 98.815 98.1554 98.606L98.1334 98.507ZM48.7654 118.888C48.7654 117.975 48.3254 117.304 47.4014 117.051C48.1384 116.699 48.4904 116.149 48.4904 115.324C48.4904 114.774 48.2814 114.246 47.9404 113.916C47.5664 113.553 47.1704 113.454 46.1144 113.454H44.3104C44.1454 113.454 44.1344 113.476 44.1344 113.641V120.813C44.1344 120.978 44.1454 121 44.3104 121H46.0484C46.7744 121 46.9394 120.989 47.3134 120.901C48.1824 120.714 48.7654 119.889 48.7654 118.888ZM47.2584 115.456C47.2584 116.281 46.8514 116.688 46.0044 116.688H45.2894V114.367H46.0924C46.9174 114.367 47.2584 114.686 47.2584 115.456ZM47.5224 118.833C47.5224 119.669 47.0824 120.032 46.0924 120.032H45.2894V117.612H46.0704C47.0714 117.612 47.5224 118.008 47.5224 118.833ZM55.368 120.725L53.179 113.608C53.135 113.465 53.135 113.454 52.981 113.454H52.079C51.936 113.454 51.925 113.465 51.881 113.608L49.692 120.725C49.67 120.78 49.659 120.846 49.659 120.89C49.659 120.956 49.703 121 49.846 121H50.726C50.858 121 50.902 120.978 50.935 120.846L51.474 118.877H53.52L54.059 120.846C54.092 120.978 54.136 121 54.268 121H55.214C55.357 121 55.401 120.956 55.401 120.879C55.401 120.835 55.39 120.78 55.368 120.725ZM53.267 117.975H51.65L52.222 115.764C52.31 115.401 52.387 115.016 52.464 114.554C52.552 115.027 52.629 115.412 52.717 115.764L53.267 117.975ZM60.9398 115.5C60.9398 114.235 60.4668 113.454 58.5308 113.454H56.7928C56.6278 113.454 56.6168 113.476 56.6168 113.641V120.813C56.6168 120.978 56.6278 121 56.7928 121H57.6288C57.7828 121 57.8268 120.978 57.8268 120.813V117.898H58.5418C59.9388 117.898 60.9398 117.073 60.9398 115.5ZM59.7518 115.555C59.7518 116.545 59.2568 116.886 58.3878 116.886H57.8268V114.389H58.4538C59.4218 114.389 59.7518 114.675 59.7518 115.555ZM67.0427 120.813V113.641C67.0427 113.476 67.0097 113.454 66.8447 113.454H66.0197C65.8547 113.454 65.8327 113.476 65.8327 113.641V116.611H63.4127V113.641C63.4127 113.476 63.3687 113.454 63.2147 113.454H62.3787C62.2137 113.454 62.2027 113.476 62.2027 113.641V120.813C62.2027 120.978 62.2137 121 62.3787 121H63.2147C63.3687 121 63.4127 120.978 63.4127 120.813V117.546H65.8327V120.813C65.8327 120.978 65.8547 121 66.0197 121H66.8447C67.0097 121 67.0427 120.978 67.0427 120.813ZM74.0379 120.725L71.8489 113.608C71.8049 113.465 71.8049 113.454 71.6509 113.454H70.7489C70.6059 113.454 70.5949 113.465 70.5509 113.608L68.3619 120.725C68.3399 120.78 68.3289 120.846 68.3289 120.89C68.3289 120.956 68.3729 121 68.5159 121H69.3959C69.5279 121 69.5719 120.978 69.6049 120.846L70.1439 118.877H72.1899L72.7289 120.846C72.7619 120.978 72.8059 121 72.9379 121H73.8839C74.0269 121 74.0709 120.956 74.0709 120.879C74.0709 120.835 74.0599 120.78 74.0379 120.725ZM71.9369 117.975H70.3199L70.8919 115.764C70.9799 115.401 71.0569 115.016 71.1339 114.554C71.2219 115.027 71.2989 115.412 71.3869 115.764L71.9369 117.975ZM79.9177 118.888C79.9177 117.975 79.4777 117.304 78.5537 117.051C79.2907 116.699 79.6427 116.149 79.6427 115.324C79.6427 114.774 79.4337 114.246 79.0927 113.916C78.7187 113.553 78.3227 113.454 77.2667 113.454H75.4627C75.2977 113.454 75.2867 113.476 75.2867 113.641V120.813C75.2867 120.978 75.2977 121 75.4627 121H77.2007C77.9267 121 78.0917 120.989 78.4657 120.901C79.3347 120.714 79.9177 119.889 79.9177 118.888ZM78.4107 115.456C78.4107 116.281 78.0037 116.688 77.1567 116.688H76.4417V114.367H77.2447C78.0697 114.367 78.4107 114.686 78.4107 115.456ZM78.6747 118.833C78.6747 119.669 78.2347 120.032 77.2447 120.032H76.4417V117.612H77.2227C78.2237 117.612 78.6747 118.008 78.6747 118.833ZM86.3004 117.172C86.3004 114.587 85.4424 113.278 83.7374 113.278C81.8124 113.278 81.0974 114.972 81.0974 117.183C81.0974 119.845 81.9554 121.165 83.6604 121.165C85.3984 121.165 86.3004 119.812 86.3004 117.172ZM85.0134 117.216C85.0134 119.273 84.6064 120.197 83.6934 120.197C82.7364 120.197 82.3844 119.097 82.3844 117.205C82.3844 115.181 82.8024 114.246 83.7154 114.246C84.6284 114.246 85.0134 115.324 85.0134 117.216ZM92.892 113.63C92.892 113.509 92.859 113.454 92.716 113.454H91.737C91.704 113.454 91.616 113.465 91.561 113.575L89.57 117.777C89.427 118.074 89.152 118.822 89.064 119.042H89.031C89.086 118.272 89.108 118.03 89.108 117.777V113.63C89.108 113.509 89.075 113.454 88.932 113.454H88.074C87.931 113.454 87.898 113.509 87.898 113.63V120.824C87.898 120.945 87.953 121 88.074 121H88.954C89.097 121 89.119 120.945 89.163 120.846L91.275 116.446C91.473 116.039 91.605 115.731 91.726 115.291H91.759C91.715 115.632 91.682 116.017 91.682 116.391V120.824C91.682 120.967 91.737 121 91.858 121H92.716C92.837 121 92.892 120.967 92.892 120.824V113.63ZM89.647 111.507C89.636 111.452 89.625 111.408 89.548 111.408L88.811 111.485C88.723 111.496 88.701 111.573 88.701 111.65C88.701 112.255 89.273 113.036 90.461 113.036C91.077 113.036 92.1 112.618 92.1 111.639C92.1 111.562 92.078 111.496 91.99 111.485L91.286 111.408H91.264C91.198 111.408 91.165 111.452 91.154 111.507L91.132 111.617C91.066 111.958 90.802 112.255 90.439 112.255C89.823 112.255 89.713 111.815 89.669 111.606L89.647 111.507Z" fill="white"/>
</svg>
