<svg width="100" height="82" viewBox="0 0 100 82" fill="none" xmlns="http://www.w3.org/2000/svg">
<g filter="url(#filter0_f)">
<path d="M15.3209 79.3743C11.3875 79.3743 2.00002 46.7072 2.00002 40.5455C2.00002 34.3837 11.6838 2 16.1711 2L15.3209 79.3743Z" fill="#682700"/>
</g>
<path d="M16.464 80.2246C11.7316 80.2246 2.56684 47.2729 2.56684 41.0981C2.56684 34.9232 11.565 2 16.9639 2C22.3628 2 108 2.05443 108 2.05443L108 80.1616C108 80.1616 21.163 80.2246 16.464 80.2246Z" fill="#EB2316"/>
<path d="M31.001 24.5995C31.001 20.976 32.4179 17.5648 34.9942 14.9909C37.5657 12.417 40.9769 11 44.6005 11H76.0002V17.9107H44.6005C42.8257 17.9107 41.1487 18.6096 39.8796 19.8763C38.6106 21.1477 37.9116 22.8247 37.9116 24.5995L37.8711 36.1999C37.5491 39.2796 35.228 41.7676 32.2247 42.2256L31.001 42.4117V24.5995Z" fill="white"/>
<path d="M31 55.9086V48.9979H62.3997C64.1745 48.9979 65.8515 48.299 67.1182 47.0299C68.3872 45.7632 69.0862 44.0862 69.0862 42.3115L69.0933 31.3002C69.0933 28.0226 71.536 25.1767 74.7755 24.6853L75.9968 24.4993V42.3115C75.9968 45.935 74.5799 49.3462 72.0036 51.9177C69.4297 54.4916 66.0185 55.9086 62.3974 55.9086H31Z" fill="white"/>
<path d="M57.4684 42.4991V33.5037L53.501 38.4277L49.5337 33.5037V42.4991H44.2786V24.7942H49.2562L53.501 30.4868L57.7435 24.7942H62.7212V42.4991H57.4684Z" fill="white"/>
<path d="M20.8895 70.0023L21.1995 69.5123C21.2329 69.459 21.2695 69.4323 21.3095 69.4323C21.3495 69.4323 21.3829 69.4457 21.4095 69.4723L21.5195 69.5523C21.8595 69.799 22.1762 69.9223 22.4695 69.9223C22.7095 69.9223 22.9162 69.859 23.0895 69.7323C23.2695 69.6057 23.4029 69.459 23.4895 69.2923C23.5762 69.119 23.6429 68.9157 23.6895 68.6823C23.7429 68.4423 23.7729 68.2523 23.7795 68.1123C23.7929 67.9657 23.7995 67.819 23.7995 67.6723V67.5423H21.9895C21.8829 67.5423 21.8295 67.489 21.8295 67.3823V66.8123C21.8295 66.699 21.8862 66.6423 21.9995 66.6423H23.7995V66.5423C23.7995 66.309 23.7795 66.0857 23.7395 65.8723C23.7062 65.659 23.6462 65.4457 23.5595 65.2323C23.4795 65.0123 23.3529 64.839 23.1795 64.7123C23.0062 64.579 22.7995 64.5123 22.5595 64.5123C22.2595 64.5123 21.9362 64.6523 21.5895 64.9323L21.4695 65.0223C21.4429 65.0423 21.4195 65.0523 21.3995 65.0523C21.3662 65.0523 21.3329 65.0257 21.2995 64.9723L20.9795 64.5223C20.9529 64.4823 20.9395 64.449 20.9395 64.4223C20.9395 64.3623 20.9829 64.299 21.0695 64.2323C21.5295 63.8323 22.0629 63.6323 22.6695 63.6323C23.0829 63.6323 23.4395 63.7257 23.7395 63.9123C24.0462 64.099 24.2862 64.3623 24.4595 64.7023C24.6329 65.0357 24.7595 65.4123 24.8395 65.8323C24.9195 66.2523 24.9595 66.7223 24.9595 67.2423C24.9595 68.489 24.7329 69.4057 24.2795 69.9923C23.8662 70.5323 23.2895 70.8023 22.5495 70.8023C21.8495 70.8023 21.3162 70.6057 20.9495 70.2123C20.8962 70.159 20.8695 70.1123 20.8695 70.0723C20.8695 70.0523 20.8762 70.029 20.8895 70.0023ZM27.3421 70.6523H26.5721C26.4654 70.6523 26.4121 70.599 26.4121 70.4923V63.9023C26.4121 63.829 26.4454 63.7923 26.5121 63.7923H27.3821C27.4621 63.7923 27.5021 63.8357 27.5021 63.9223V66.6323H28.0121C28.4588 66.6323 28.7354 66.3657 28.8421 65.8323L29.0121 65.0423C29.1188 64.5623 29.2621 64.2323 29.4421 64.0523C29.5754 63.919 29.7388 63.819 29.9321 63.7523C30.1321 63.679 30.2988 63.6423 30.4321 63.6423C30.5254 63.6423 30.5854 63.6823 30.6121 63.7623L30.7821 64.3423C30.7888 64.3557 30.7921 64.3757 30.7921 64.4023C30.7921 64.469 30.7488 64.5123 30.6621 64.5323L30.4621 64.5723C30.3421 64.5923 30.2421 64.6457 30.1621 64.7323C30.0821 64.819 30.0288 64.9057 30.0021 64.9923C29.9754 65.079 29.9454 65.2023 29.9121 65.3623L29.7721 65.9923C29.6521 66.5523 29.3988 66.9123 29.0121 67.0723C29.2121 67.139 29.3888 67.2723 29.5421 67.4723C29.7021 67.6723 29.8121 67.889 29.8721 68.1223L30.1121 69.1323C30.1388 69.2323 30.1621 69.3223 30.1821 69.4023C30.2088 69.4757 30.2354 69.539 30.2621 69.5923C30.2954 69.639 30.3221 69.679 30.3421 69.7123C30.3621 69.739 30.3921 69.7623 30.4321 69.7823C30.4721 69.7957 30.4988 69.8057 30.5121 69.8123C30.5254 69.819 30.5554 69.8257 30.6021 69.8323C30.6488 69.839 30.6788 69.8423 30.6921 69.8423L30.8821 69.8723C30.9821 69.9057 31.0321 69.9457 31.0321 69.9923C31.0321 70.019 31.0288 70.039 31.0221 70.0523L30.8121 70.6823C30.7988 70.7357 30.7788 70.769 30.7521 70.7823C30.7321 70.7957 30.6888 70.8023 30.6221 70.8023C30.1754 70.8023 29.8388 70.7023 29.6121 70.5023C29.3854 70.3023 29.2188 69.959 29.1121 69.4723L28.8821 68.4023C28.8088 68.0557 28.7054 67.8257 28.5721 67.7123C28.4388 67.5923 28.2488 67.5323 28.0021 67.5323H27.5021V70.4923C27.5021 70.599 27.4488 70.6523 27.3421 70.6523ZM35.6755 69.9523C35.7088 70.0057 35.7255 70.049 35.7255 70.0823C35.7255 70.1223 35.6888 70.1757 35.6155 70.2423C35.1488 70.6157 34.6355 70.8023 34.0755 70.8023C33.2888 70.8023 32.6888 70.4923 32.2755 69.8723C31.8621 69.2457 31.6555 68.3357 31.6555 67.1423C31.6555 66.809 31.6755 66.489 31.7155 66.1823C31.7555 65.8757 31.8288 65.5623 31.9355 65.2423C32.0488 64.9223 32.1888 64.649 32.3555 64.4223C32.5288 64.189 32.7555 63.999 33.0355 63.8523C33.3221 63.7057 33.6488 63.6323 34.0155 63.6323C34.5955 63.6323 35.1188 63.8323 35.5855 64.2323C35.6521 64.2923 35.6855 64.3457 35.6855 64.3923C35.6855 64.4257 35.6688 64.469 35.6355 64.5223L35.3155 65.0323C35.3021 65.0657 35.2721 65.0823 35.2255 65.0823C35.1788 65.0823 35.1388 65.0657 35.1055 65.0323C34.6988 64.7123 34.3488 64.5523 34.0555 64.5523C33.6355 64.5523 33.3255 64.749 33.1255 65.1423C32.9255 65.5357 32.8255 66.1523 32.8255 66.9923C32.8255 68.9123 33.2755 69.8723 34.1755 69.8723C34.4755 69.8723 34.7955 69.7423 35.1355 69.4823C35.1955 69.4357 35.2421 69.4123 35.2755 69.4123C35.3155 69.4123 35.3488 69.4323 35.3755 69.4723L35.6755 69.9523ZM37.7425 70.6523H36.9725C36.8658 70.6523 36.8125 70.599 36.8125 70.4923V63.9023C36.8125 63.829 36.8458 63.7923 36.9125 63.7923H37.7825C37.8625 63.7923 37.9025 63.8357 37.9025 63.9223V66.6323H38.4125C38.8592 66.6323 39.1358 66.3657 39.2425 65.8323L39.4125 65.0423C39.5192 64.5623 39.6625 64.2323 39.8425 64.0523C39.9758 63.919 40.1392 63.819 40.3325 63.7523C40.5325 63.679 40.6992 63.6423 40.8325 63.6423C40.9258 63.6423 40.9858 63.6823 41.0125 63.7623L41.1825 64.3423C41.1892 64.3557 41.1925 64.3757 41.1925 64.4023C41.1925 64.469 41.1492 64.5123 41.0625 64.5323L40.8625 64.5723C40.7425 64.5923 40.6425 64.6457 40.5625 64.7323C40.4825 64.819 40.4292 64.9057 40.4025 64.9923C40.3758 65.079 40.3458 65.2023 40.3125 65.3623L40.1725 65.9923C40.0525 66.5523 39.7992 66.9123 39.4125 67.0723C39.6125 67.139 39.7892 67.2723 39.9425 67.4723C40.1025 67.6723 40.2125 67.889 40.2725 68.1223L40.5125 69.1323C40.5392 69.2323 40.5625 69.3223 40.5825 69.4023C40.6092 69.4757 40.6358 69.539 40.6625 69.5923C40.6958 69.639 40.7225 69.679 40.7425 69.7123C40.7625 69.739 40.7925 69.7623 40.8325 69.7823C40.8725 69.7957 40.8992 69.8057 40.9125 69.8123C40.9258 69.819 40.9558 69.8257 41.0025 69.8323C41.0492 69.839 41.0792 69.8423 41.0925 69.8423L41.2825 69.8723C41.3825 69.9057 41.4325 69.9457 41.4325 69.9923C41.4325 70.019 41.4292 70.039 41.4225 70.0523L41.2125 70.6823C41.1992 70.7357 41.1792 70.769 41.1525 70.7823C41.1325 70.7957 41.0892 70.8023 41.0225 70.8023C40.5758 70.8023 40.2392 70.7023 40.0125 70.5023C39.7858 70.3023 39.6192 69.959 39.5125 69.4723L39.2825 68.4023C39.2092 68.0557 39.1058 67.8257 38.9725 67.7123C38.8392 67.5923 38.6492 67.5323 38.4025 67.5323H37.9025V70.4923C37.9025 70.599 37.8492 70.6523 37.7425 70.6523ZM46.773 63.9523V70.4923C46.773 70.599 46.7197 70.6523 46.613 70.6523H45.833C45.7264 70.6523 45.673 70.599 45.673 70.4923V64.6923H44.133L44.123 65.6623C44.1097 66.6157 44.0664 67.4357 43.993 68.1223C43.9664 68.349 43.9297 68.5657 43.883 68.7723C43.843 68.979 43.773 69.2123 43.673 69.4723C43.573 69.7323 43.453 69.9557 43.313 70.1423C43.1797 70.3223 42.9964 70.479 42.763 70.6123C42.5297 70.739 42.2664 70.8023 41.973 70.8023C41.8597 70.8023 41.793 70.7557 41.773 70.6623L41.623 70.0723C41.623 70.0657 41.623 70.0557 41.623 70.0423C41.6164 70.029 41.613 70.019 41.613 70.0123C41.613 69.9257 41.6597 69.8757 41.753 69.8623L41.903 69.8423C42.1764 69.809 42.403 69.709 42.583 69.5423C42.763 69.369 42.8997 69.0123 42.993 68.4723C43.0864 67.9323 43.1364 67.4557 43.143 67.0423C43.1564 66.6223 43.163 66.0423 43.163 65.3023C43.163 65.1557 43.163 65.049 43.163 64.9823V63.9423C43.163 63.8423 43.213 63.7923 43.313 63.7923H46.613C46.7197 63.7923 46.773 63.8457 46.773 63.9523ZM49.7484 66.6523H50.7584C50.7718 66.4723 50.7918 66.2957 50.8184 66.1223C50.8451 65.9423 50.8884 65.729 50.9484 65.4823C51.0151 65.2357 51.1051 65.0123 51.2184 64.8123C51.3384 64.6057 51.4784 64.4123 51.6384 64.2323C51.8051 64.0457 52.0151 63.899 52.2684 63.7923C52.5284 63.6857 52.8151 63.6323 53.1284 63.6323C53.4818 63.6323 53.7951 63.699 54.0684 63.8323C54.3418 63.9657 54.5584 64.149 54.7184 64.3823C54.8784 64.6157 55.0118 64.8557 55.1184 65.1023C55.2318 65.349 55.3118 65.6257 55.3584 65.9323C55.4051 66.2323 55.4351 66.4757 55.4484 66.6623C55.4618 66.849 55.4684 67.039 55.4684 67.2323C55.4684 67.4323 55.4584 67.6357 55.4384 67.8423C55.4251 68.0423 55.3918 68.289 55.3384 68.5823C55.2918 68.8757 55.2118 69.1457 55.0984 69.3923C54.9918 69.6323 54.8551 69.8657 54.6884 70.0923C54.5284 70.3123 54.3118 70.4857 54.0384 70.6123C53.7718 70.739 53.4684 70.8023 53.1284 70.8023C52.7751 70.8023 52.4584 70.7357 52.1784 70.6023C51.9051 70.4623 51.6818 70.2823 51.5084 70.0623C51.3351 69.8423 51.1884 69.5857 51.0684 69.2923C50.9551 68.999 50.8751 68.7123 50.8284 68.4323C50.7818 68.1457 50.7551 67.8523 50.7484 67.5523H49.7484V70.4823C49.7484 70.5957 49.7018 70.6523 49.6084 70.6523H48.8184C48.7051 70.6523 48.6484 70.6023 48.6484 70.5023V63.9523C48.6484 63.8857 48.6618 63.8423 48.6884 63.8223C48.7151 63.8023 48.7618 63.7923 48.8284 63.7923H49.5784C49.6918 63.7923 49.7484 63.8457 49.7484 63.9523V66.6523ZM53.0884 69.9223C53.3618 69.9223 53.5851 69.839 53.7584 69.6723C54.1184 69.3323 54.2984 68.5157 54.2984 67.2223C54.2984 65.9557 54.1184 65.1423 53.7584 64.7823C53.5784 64.6023 53.3551 64.5123 53.0884 64.5123C52.8151 64.5123 52.5884 64.6023 52.4084 64.7823C52.0484 65.1423 51.8684 65.9523 51.8684 67.2123C51.8684 68.479 52.0351 69.2857 52.3684 69.6323C52.5551 69.8257 52.7951 69.9223 53.0884 69.9223ZM57.4599 67.4023V66.8423C57.4599 66.7357 57.5133 66.6823 57.6199 66.6823H57.8999C58.2933 66.6823 58.5899 66.5857 58.7899 66.3923C58.9833 66.199 59.0799 65.9357 59.0799 65.6023C59.0799 65.309 58.9866 65.059 58.7999 64.8523C58.6199 64.639 58.3666 64.5323 58.0399 64.5323C57.6999 64.5323 57.3699 64.6623 57.0499 64.9223L56.9399 65.0123C56.9133 65.039 56.8766 65.0523 56.8299 65.0523C56.7766 65.0523 56.7366 65.0323 56.7099 64.9923L56.4299 64.5923C56.3966 64.539 56.3799 64.499 56.3799 64.4723C56.3799 64.4257 56.4099 64.3723 56.4699 64.3123C56.9033 63.859 57.4866 63.6323 58.2199 63.6323C58.6133 63.6323 58.9466 63.699 59.2199 63.8323C59.4999 63.959 59.7033 64.129 59.8299 64.3423C59.9566 64.549 60.0433 64.7457 60.0899 64.9323C60.1366 65.1123 60.1599 65.2957 60.1599 65.4823C60.1599 66.2823 59.8233 66.7957 59.1499 67.0223C59.9566 67.289 60.3599 67.8557 60.3599 68.7223C60.3599 69.3423 60.1833 69.8357 59.8299 70.2023C59.4433 70.6023 58.8899 70.8023 58.1699 70.8023C57.6566 70.8023 57.2333 70.7257 56.8999 70.5723C56.7333 70.499 56.5766 70.409 56.4299 70.3023C56.2899 70.1957 56.2199 70.099 56.2199 70.0123C56.2199 69.979 56.2266 69.9523 56.2399 69.9323L56.5499 69.3923C56.5699 69.3657 56.5966 69.3523 56.6299 69.3523C56.6766 69.3523 56.7199 69.369 56.7599 69.4023L56.8599 69.4723C57.2733 69.759 57.6599 69.9023 58.0199 69.9023C58.8266 69.9023 59.2299 69.499 59.2299 68.6923C59.2299 68.299 59.1066 68.0123 58.8599 67.8323C58.6199 67.6523 58.3333 67.5623 57.9999 67.5623H57.6199C57.5133 67.5623 57.4599 67.509 57.4599 67.4023ZM66.4502 63.9523V70.4923C66.4502 70.599 66.3968 70.6523 66.2902 70.6523H65.5102C65.4035 70.6523 65.3502 70.599 65.3502 70.4923V66.4623C65.3502 66.1557 65.3735 65.8223 65.4202 65.4623H65.3902C65.3035 65.7823 65.1668 66.1323 64.9802 66.5123L63.0602 70.5123C63.0202 70.6057 62.9568 70.6523 62.8702 70.6523H62.0702C61.9635 70.6523 61.9102 70.599 61.9102 70.4923V63.9523C61.9102 63.8457 61.9635 63.7923 62.0702 63.7923H62.8502C62.9568 63.7923 63.0102 63.8457 63.0102 63.9523V67.7223C63.0102 67.8357 62.9868 68.219 62.9402 68.8723H62.9702C62.9835 68.839 63.0235 68.7357 63.0902 68.5623C63.1568 68.389 63.2202 68.2257 63.2802 68.0723C63.3402 67.919 63.3902 67.8023 63.4302 67.7223L65.2402 63.9023C65.2802 63.829 65.3335 63.7923 65.4002 63.7923H66.2902C66.3968 63.7923 66.4502 63.8457 66.4502 63.9523ZM72.5362 68.7323C72.5362 69.1923 72.4128 69.5923 72.1662 69.9323C71.9262 70.2657 71.6095 70.4757 71.2162 70.5623C70.9628 70.6223 70.5795 70.6523 70.0662 70.6523H68.4862C68.4128 70.6523 68.3662 70.6423 68.3462 70.6223C68.3328 70.6023 68.3262 70.5557 68.3262 70.4823V63.9623C68.3262 63.889 68.3328 63.8423 68.3462 63.8223C68.3662 63.8023 68.4128 63.7923 68.4862 63.7923H70.1262C70.6062 63.7923 70.9595 63.8223 71.1862 63.8823C71.4195 63.9357 71.6195 64.0457 71.7862 64.2123C72.1195 64.5323 72.2862 64.959 72.2862 65.4923C72.2862 66.2257 71.9562 66.749 71.2962 67.0623C72.1228 67.289 72.5362 67.8457 72.5362 68.7323ZM71.1662 65.6123C71.1662 65.259 71.0828 65.0057 70.9162 64.8523C70.7495 64.699 70.4795 64.6223 70.1062 64.6223H69.3762V66.7323H70.0262C70.7862 66.7323 71.1662 66.359 71.1662 65.6123ZM71.0962 69.5123C71.3028 69.339 71.4062 69.0623 71.4062 68.6823C71.4062 68.3023 71.2995 68.0223 71.0862 67.8423C70.8728 67.6623 70.5395 67.5723 70.0862 67.5723H69.3762V69.7723H70.1062C70.5595 69.7723 70.8895 69.6857 71.0962 69.5123ZM78.4586 70.4823C78.4586 70.5557 78.4453 70.6023 78.4186 70.6223C78.3986 70.6423 78.3519 70.6523 78.2786 70.6523H77.5286C77.4553 70.6523 77.4086 70.6423 77.3886 70.6223C77.3686 70.6023 77.3586 70.5557 77.3586 70.4823V67.5123H75.1586V70.4823C75.1586 70.5557 75.1453 70.6023 75.1186 70.6223C75.0986 70.6423 75.0519 70.6523 74.9786 70.6523H74.2186C74.1453 70.6523 74.0986 70.6423 74.0786 70.6223C74.0653 70.6023 74.0586 70.5557 74.0586 70.4823V63.9623C74.0586 63.889 74.0653 63.8423 74.0786 63.8223C74.0986 63.8023 74.1453 63.7923 74.2186 63.7923H74.9786C75.0519 63.7923 75.0986 63.8023 75.1186 63.8223C75.1453 63.8423 75.1586 63.889 75.1586 63.9623V66.6623H77.3586V63.9623C77.3586 63.889 77.3686 63.8423 77.3886 63.8223C77.4086 63.8023 77.4553 63.7923 77.5286 63.7923H78.2786C78.3519 63.7923 78.3986 63.8023 78.4186 63.8223C78.4453 63.8423 78.4586 63.889 78.4586 63.9623V70.4823ZM84.6179 67.1723C84.6179 69.5923 83.8179 70.8023 82.2179 70.8023C80.6646 70.8023 79.8879 69.5957 79.8879 67.1823C79.8879 66.1023 80.0812 65.2423 80.4679 64.6023C80.8546 63.9557 81.4612 63.6323 82.2879 63.6323C83.8412 63.6323 84.6179 64.8123 84.6179 67.1723ZM83.4479 67.2123C83.4479 65.4123 83.0546 64.5123 82.2679 64.5123C81.8546 64.5123 81.5479 64.7323 81.3479 65.1723C81.1546 65.6057 81.0579 66.2823 81.0579 67.2023C81.0579 68.0957 81.1512 68.7723 81.3379 69.2323C81.5246 69.6923 81.8279 69.9223 82.2479 69.9223C82.6612 69.9223 82.9646 69.7057 83.1579 69.2723C83.3512 68.8323 83.4479 68.1457 83.4479 67.2123Z" fill="white"/>
<defs>
<filter id="filter0_f" x="0" y="0" width="18.1711" height="81.3743" filterUnits="userSpaceOnUse" color-interpolation-filters="sRGB">
<feFlood flood-opacity="0" result="BackgroundImageFix"/>
<feBlend mode="normal" in="SourceGraphic" in2="BackgroundImageFix" result="shape"/>
<feGaussianBlur stdDeviation="1" result="effect1_foregroundBlur"/>
</filter>
</defs>
</svg>
