<svg width="399" height="197" viewBox="0 0 399 197" fill="none" xmlns="http://www.w3.org/2000/svg">
<g filter="url(#filter0_d)">
<path d="M40.3235 44.5921V1.37711C40.3235 0.238113 40.1895 0.0371117 38.9165 0.0371117H28.6655C27.3925 0.0371117 27.3255 0.238113 27.3255 1.37711V17.1891H18.6155V1.37711C18.6155 0.238113 18.3475 0.0371117 17.2085 0.0371117H6.95751C5.68451 0.0371117 5.61751 0.238113 5.61751 1.37711V44.5921C5.61751 45.8651 5.68451 45.9991 6.95751 45.9991H17.2085C18.3475 45.9991 18.6155 45.8651 18.6155 44.5921V27.7751H27.3255V44.5921C27.3255 45.8651 27.3925 45.9991 28.6655 45.9991H38.9165C40.1895 45.9991 40.3235 45.8651 40.3235 44.5921ZM76.7029 43.5871C76.0329 41.9121 75.1619 40.1031 75.1619 35.4801V23.2861C75.1619 15.3131 70.2039 11.7621 61.6279 11.7621C57.2059 11.7621 52.5829 12.4321 49.2329 14.3081C48.6299 14.6431 48.3619 14.7771 48.3619 15.1121C48.3619 15.2461 48.4289 15.3801 48.4959 15.6481L50.9079 22.2811C51.0419 22.6831 51.2429 22.8171 51.5109 22.8171C51.6449 22.8171 51.8459 22.8171 52.0469 22.6831C55.3299 21.3431 58.0099 20.6061 60.0869 20.6061C63.5709 20.6061 63.9729 21.4101 63.9729 22.6161V24.5591C55.2629 24.5591 46.1509 26.8371 46.1509 36.2841C46.1509 42.8501 50.3719 46.9371 57.6749 46.9371C60.6899 46.9371 63.1019 45.8651 65.6479 43.7881C66.6529 46.1331 66.9879 47.0041 67.9259 47.0041C68.3949 47.0041 68.7969 46.9371 69.1989 46.8031L76.3679 44.7261C76.7699 44.5921 76.8369 44.4581 76.8369 44.2571C76.8369 44.0561 76.7699 43.8551 76.7029 43.5871ZM63.9729 37.2891C62.6329 38.6291 61.0919 39.4331 59.7519 39.4331C58.0099 39.4331 56.5359 38.0931 56.5359 35.8151C56.5359 33.2691 58.3449 31.5941 63.9729 31.5941V37.2891ZM97.9979 45.1281C97.9979 45.9321 98.2659 45.9991 98.6009 45.9991H109.053C109.924 45.9991 110.125 45.9991 110.125 45.7311C110.125 45.5971 110.058 45.3291 110.058 45.0611V22.4151H116.423V45.1281C116.423 45.9321 116.691 45.9991 117.026 45.9991H127.478C128.349 45.9991 128.55 45.9321 128.55 45.6641C128.55 45.5301 128.483 45.3291 128.483 45.0611V13.7721C128.483 13.1691 128.215 12.9011 127.612 12.9011H98.9359C98.1989 12.9011 97.9979 13.1021 97.9979 13.8391V45.1281ZM166.853 29.5171C166.853 18.9311 161.158 11.7621 150.572 11.7621C139.986 11.7621 134.023 18.9311 134.023 29.3831C134.023 40.1031 139.785 47.1381 150.505 47.1381C160.89 47.1381 166.853 39.8351 166.853 29.5171ZM154.927 29.4501C154.927 36.8871 153.252 38.9641 150.438 38.9641C147.624 38.9641 145.949 36.9541 145.949 29.5171C145.949 21.9461 147.624 19.9361 150.438 19.9361C153.252 19.9361 154.927 22.0131 154.927 29.4501ZM172.392 45.0611C172.392 45.9321 172.593 45.9991 173.33 45.9991H183.581C184.251 45.9991 184.452 45.6641 184.653 45.3291L190.147 35.1451C192.358 31.1251 193.296 28.9811 193.966 27.2391H194.234C194.1 28.6461 193.899 31.7951 193.899 33.4701V45.1281C193.899 45.9321 194.033 45.9991 194.502 45.9991H204.351C204.619 45.9991 204.887 45.9991 204.887 45.5971V12.5661C204.887 11.8961 204.753 11.7621 204.351 11.7621L194.502 12.9011C193.43 13.0351 193.229 13.2361 192.626 14.2411L186.797 24.4921C185.524 26.6361 184.385 28.7801 183.313 31.5941H183.112C183.246 29.6511 183.38 27.1051 183.38 25.1621V12.2311C183.38 11.8291 183.179 11.7621 182.978 11.7621L173.33 12.8341C172.794 12.9011 172.392 12.9681 172.392 13.5041V45.0611ZM238.518 17.0551C238.652 16.6531 238.786 16.3851 238.786 16.1171C238.786 15.7821 238.585 15.5141 238.116 15.1791C235.101 12.9681 231.416 11.7621 227.597 11.7621C216.542 11.7621 210.445 19.0651 210.445 29.9861C210.445 40.3711 215.872 47.1381 226.525 47.1381C229.406 47.1381 238.317 45.2621 238.317 42.3141C238.317 42.0461 238.183 41.7781 238.049 41.5101L235.503 36.5521C235.235 36.0161 234.967 35.7481 234.632 35.7481C234.364 35.7481 234.029 35.8821 233.56 36.1501C231.818 37.1551 230.009 38.1601 227.798 38.1601C225.051 38.1601 222.371 36.1501 222.371 29.6511C222.371 22.8841 225.118 20.7401 227.731 20.7401C230.076 20.7401 232.22 21.7451 234.565 23.2191C234.9 23.4201 235.168 23.5541 235.369 23.5541C235.637 23.5541 235.771 23.3531 235.972 22.9511L238.518 17.0551ZM254.265 33.1351H256.275C258.419 33.1351 259.29 34.2741 259.759 36.4181L260.362 39.5001C262.037 47.4731 268.67 47.1381 271.484 47.1381C273.159 47.1381 273.36 46.8701 273.494 46.1331L274.834 40.2371C274.901 40.0361 274.901 39.9021 274.901 39.7011C274.901 39.1651 274.7 38.6961 273.896 38.5621L273.092 38.4281C271.953 38.2271 270.881 38.6291 270.077 35.3461L269.608 33.5371C269.005 31.0581 267.531 29.3161 265.454 28.7131V28.5121C267.598 27.9091 268.603 26.4351 269.139 24.7601L269.943 22.3481C270.412 21.1421 270.747 20.1371 272.556 19.8021L273.762 19.6011C274.231 19.5341 274.499 19.1321 274.499 18.6631C274.499 18.5291 274.432 18.4621 274.432 18.3281L272.891 12.0301C272.69 11.2931 271.953 11.2261 271.216 11.2261C266.995 11.2261 262.305 12.7671 260.831 18.3281L260.295 20.6061C259.826 22.6831 258.955 24.2911 256.677 24.2911H254.265V12.6331C254.265 12.0301 254.131 11.8291 253.796 11.8291C253.595 11.8291 253.327 11.8961 252.925 11.9631L243.143 12.9681C242.473 13.0351 242.205 13.1021 242.205 13.8391V45.1281C242.205 45.9991 242.54 45.9991 243.21 45.9991H253.595C254.265 45.9991 254.265 45.9991 254.265 45.0611V33.1351ZM278.846 45.0611C278.846 45.9321 279.047 45.9991 279.784 45.9991H290.035C290.705 45.9991 290.906 45.6641 291.107 45.3291L296.601 35.1451C298.812 31.1251 299.75 28.9811 300.42 27.2391H300.688C300.554 28.6461 300.353 31.7951 300.353 33.4701V45.1281C300.353 45.9321 300.487 45.9991 300.956 45.9991H310.805C311.073 45.9991 311.341 45.9991 311.341 45.5971V12.5661C311.341 11.8961 311.207 11.7621 310.805 11.7621L300.956 12.9011C299.884 13.0351 299.683 13.2361 299.08 14.2411L293.251 24.4921C291.978 26.6361 290.839 28.7801 289.767 31.5941H289.566C289.7 29.6511 289.834 27.1051 289.834 25.1621V12.2311C289.834 11.8291 289.633 11.7621 289.432 11.7621L279.784 12.8341C279.248 12.9011 278.846 12.9681 278.846 13.5041V45.0611ZM32.2835 83.0551C32.4175 82.6531 32.5515 82.3851 32.5515 82.1171C32.5515 81.7821 32.3505 81.5141 31.8815 81.1791C28.8665 78.9681 25.1815 77.7621 21.3625 77.7621C10.3075 77.7621 4.21051 85.0651 4.21051 95.9861C4.21051 106.371 9.63751 113.138 20.2905 113.138C23.1715 113.138 32.0825 111.262 32.0825 108.314C32.0825 108.046 31.9485 107.778 31.8145 107.51L29.2685 102.552C29.0005 102.016 28.7325 101.748 28.3975 101.748C28.1295 101.748 27.7945 101.882 27.3255 102.15C25.5835 103.155 23.7745 104.16 21.5635 104.16C18.8165 104.16 16.1365 102.15 16.1365 95.6511C16.1365 88.8841 18.8835 86.7401 21.4965 86.7401C23.8415 86.7401 25.9855 87.7451 28.3305 89.2191C28.6655 89.4201 28.9335 89.5541 29.1345 89.5541C29.4025 89.5541 29.5365 89.3531 29.7375 88.9511L32.2835 83.0551ZM53.1692 111.999C56.7872 111.999 62.0802 111.731 65.1622 108.85C67.3732 106.773 67.6412 104.294 67.6412 102.083C67.6412 99.6711 66.6362 95.6511 61.6112 94.4451C66.1002 93.0381 66.6362 89.1521 66.6362 87.2091C66.6362 83.3231 64.7602 81.2461 62.8172 80.1741C60.6062 78.9681 57.7922 78.9011 53.1022 78.9011H37.7592C36.8882 78.9011 36.8212 79.1021 36.8212 79.8391V111.061C36.8212 111.932 37.0222 111.999 37.7592 111.999H53.1692ZM48.3452 86.0701H52.0972C53.3702 86.0701 55.1792 86.8071 55.1792 88.8171C55.1792 91.6311 53.1692 91.8321 51.8962 91.8321H48.3452V86.0701ZM48.3452 98.5321H52.2312C53.9732 98.5321 55.9832 99.3361 55.9832 101.681C55.9832 103.222 54.9782 104.83 52.3652 104.83H48.3452V98.5321ZM103.749 96.9911C103.749 84.6631 99.26 77.7621 88.674 77.7621C78.356 77.7621 72.192 85.4001 72.192 95.7181C72.192 106.572 77.887 113.138 89.009 113.138C92.694 113.138 97.585 112.401 102.141 109.319C102.61 109.051 102.811 108.85 102.811 108.582C102.811 108.448 102.744 108.247 102.61 108.046L99.595 102.418C99.327 101.949 99.059 101.681 98.724 101.681C98.523 101.681 98.322 101.748 97.987 101.949C95.441 103.356 93.364 104.428 89.344 104.428C85.994 104.428 84.118 102.619 83.716 97.9291H102.677C103.347 97.9291 103.749 97.8621 103.749 96.9911ZM92.426 90.7601H83.716C84.386 86.5391 85.458 85.1321 88.272 85.1321C90.885 85.1321 92.158 86.4051 92.426 90.7601ZM136.658 99.1351H137.73C140.142 99.1351 141.013 100.609 141.549 102.82L142.152 105.701C143.291 110.592 146.708 113.138 153.006 113.138C153.944 113.138 154.614 113.071 154.815 112.133L156.155 105.701C156.155 105.165 155.82 104.696 155.217 104.562L154.279 104.428C152.135 104.093 151.934 102.887 151.532 101.681L150.996 99.8721C150.46 98.1301 149.321 95.4501 146.239 94.7131V94.5121C148.852 93.9761 149.857 92.1001 150.192 90.6261L150.594 89.0181C151.197 86.6731 152.202 86.5391 153.676 86.2711L154.48 86.1371C154.949 86.0701 155.351 85.7351 155.351 85.1991C155.351 85.0651 155.351 84.9311 155.284 84.7971L153.676 78.5661C153.475 77.8291 152.738 77.7621 151.934 77.7621C145.904 77.7621 143.224 81.0451 142.42 84.7301L141.951 86.8741C141.482 89.3531 140.276 90.2911 137.931 90.2911H136.658V78.3651C136.658 77.9631 136.457 77.8961 136.256 77.8961L126.876 78.9681C126.34 79.0351 125.938 79.0351 125.938 79.7721V90.2911H124.665C122.32 90.2911 121.114 89.3531 120.645 86.8741L120.176 84.7301C119.372 81.0451 116.692 77.7621 110.662 77.7621C109.858 77.7621 109.121 77.8291 108.92 78.5661L107.312 84.7971C107.245 84.9311 107.245 85.0651 107.245 85.1991C107.245 85.7351 107.647 86.0701 108.116 86.1371L108.92 86.2711C110.394 86.5391 111.399 86.6731 112.002 89.0181L112.404 90.6261C112.739 92.1001 113.744 93.9761 116.357 94.5121V94.7131C113.275 95.4501 112.136 98.1301 111.6 99.8721L111.064 101.681C110.662 102.887 110.461 104.093 108.317 104.428L107.379 104.562C106.776 104.696 106.441 105.165 106.441 105.701L107.781 112.133C107.982 113.071 108.652 113.138 109.59 113.138C115.888 113.138 119.305 110.592 120.444 105.701L121.047 102.82C121.583 100.609 122.454 99.1351 124.866 99.1351H125.938V111.128C125.938 111.53 126.005 111.999 126.541 111.999H136.189C136.524 111.999 136.658 111.932 136.658 111.463V99.1351ZM160.156 111.061C160.156 111.932 160.357 111.999 161.094 111.999H171.345C172.015 111.999 172.216 111.664 172.417 111.329L177.911 101.145C180.122 97.1251 181.06 94.9811 181.73 93.2391H181.998C181.864 94.6461 181.663 97.7951 181.663 99.4701V111.128C181.663 111.932 181.797 111.999 182.266 111.999H192.115C192.383 111.999 192.651 111.999 192.651 111.597V78.5661C192.651 77.8961 192.517 77.7621 192.115 77.7621L182.266 78.9011C181.194 79.0351 180.993 79.2361 180.39 80.2411L174.561 90.4921C173.288 92.6361 172.149 94.7801 171.077 97.5941H170.876C171.01 95.6511 171.144 93.1051 171.144 91.1621V78.2311C171.144 77.8291 170.943 77.7621 170.742 77.7621L161.094 78.8341C160.558 78.9011 160.156 78.9681 160.156 79.5041V111.061ZM232.782 110.257L222.33 95.3161L232.179 82.3851C232.447 82.0501 232.581 81.7821 232.581 81.5141C232.581 81.1791 232.313 80.9111 231.643 80.7771L221.191 78.6331C220.856 78.5661 220.588 78.4991 220.387 78.4991C220.052 78.4991 219.918 78.6331 219.65 79.1021L216.099 84.9311C215.563 85.7351 215.161 86.8071 214.826 87.5441C214.558 86.9411 214.089 85.6681 213.754 84.9311L210.739 79.1021C210.471 78.7001 210.337 78.4991 209.935 78.4991C209.801 78.4991 209.533 78.4991 209.265 78.5661L198.679 80.4421C198.009 80.5761 197.741 80.7771 197.741 81.1121C197.741 81.3801 197.875 81.6481 198.143 82.0501L207.523 95.3161L197.138 109.386C196.87 109.721 196.736 109.989 196.736 110.257C196.736 110.592 197.071 110.86 197.674 110.994L208.26 112.937C208.595 113.004 208.729 113.004 208.93 113.004C209.265 113.004 209.399 112.87 209.667 112.468L213.687 105.567C214.29 104.495 214.558 103.423 214.893 102.686C215.228 103.423 215.496 104.361 216.166 105.567L219.985 112.468C220.186 112.937 220.387 113.071 220.789 113.071C220.99 113.071 221.191 113.004 221.459 113.004L232.246 111.865C232.849 111.798 233.117 111.53 233.117 111.128C233.117 110.86 232.983 110.592 232.782 110.257ZM252.608 111.061C252.608 111.932 252.809 111.999 253.546 111.999H263.797C264.467 111.999 264.668 111.664 264.869 111.329L270.363 101.145C272.574 97.1251 273.512 94.9811 274.182 93.2391H274.45C274.316 94.6461 274.115 97.7951 274.115 99.4701V111.128C274.115 111.932 274.249 111.999 274.718 111.999H284.567C284.835 111.999 285.103 111.999 285.103 111.597V78.5661C285.103 77.8961 284.969 77.7621 284.567 77.7621L274.718 78.9011C273.646 79.0351 273.445 79.2361 272.842 80.2411L267.013 90.4921C265.74 92.6361 264.601 94.7801 263.529 97.5941H263.328C263.462 95.6511 263.596 93.1051 263.596 91.1621V78.2311C263.596 77.8291 263.395 77.7621 263.194 77.7621L253.546 78.8341C253.01 78.9011 252.608 78.9681 252.608 79.5041V111.061ZM322.487 79.8391C322.487 79.1021 322.286 78.9011 321.549 78.9011H296.692C295.821 78.9011 295.754 79.1021 295.754 79.8391V83.0551C295.754 89.2191 295.62 92.1671 295.285 94.4451C295.084 95.9191 294.347 99.6711 292.002 103.825H289.121C288.451 103.825 288.451 104.227 288.451 104.763V120.441C288.451 121.178 288.652 121.379 289.389 121.379H297.563C298.434 121.379 298.501 121.178 298.501 120.441V111.999H316.256V120.441C316.256 121.178 316.457 121.379 317.194 121.379H325.368C326.239 121.379 326.306 121.178 326.306 120.441V104.629C326.306 104.093 326.172 103.825 325.636 103.825H322.487V79.8391ZM311.365 103.825H302.856C304.598 100.14 305.67 94.9141 305.67 89.2861V87.0751H311.365V103.825ZM360.757 96.9911C360.757 84.6631 356.268 77.7621 345.682 77.7621C335.364 77.7621 329.2 85.4001 329.2 95.7181C329.2 106.572 334.895 113.138 346.017 113.138C349.702 113.138 354.593 112.401 359.149 109.319C359.618 109.051 359.819 108.85 359.819 108.582C359.819 108.448 359.752 108.247 359.618 108.046L356.603 102.418C356.335 101.949 356.067 101.681 355.732 101.681C355.531 101.681 355.33 101.748 354.995 101.949C352.449 103.356 350.372 104.428 346.352 104.428C343.002 104.428 341.126 102.619 340.724 97.9291H359.685C360.355 97.9291 360.757 97.8621 360.757 96.9911ZM349.434 90.7601H340.724C341.394 86.5391 342.466 85.1321 345.28 85.1321C347.893 85.1321 349.166 86.4051 349.434 90.7601ZM388.775 63.8931C388.574 63.8931 388.44 63.8261 388.239 63.8261C386.966 63.8261 387.77 68.7171 383.281 68.7171C377.921 68.7171 379.462 63.8261 378.055 63.8261C377.854 63.8261 377.72 63.8931 377.519 63.8931L371.69 64.4961C371.556 64.4961 371.02 64.6971 371.02 65.6351C371.02 67.2431 372.092 75.0821 383.013 75.0821C389.847 75.0821 392.795 71.7321 394.001 69.7891C395.073 68.1141 395.274 66.6401 395.274 65.6351C395.274 64.6971 394.805 64.4961 394.604 64.4961L388.775 63.8931ZM366.129 111.061C366.129 111.932 366.33 111.999 367.067 111.999H377.318C377.988 111.999 378.189 111.664 378.39 111.329L383.884 101.145C386.095 97.1251 387.033 94.9811 387.703 93.2391H387.971C387.837 94.6461 387.636 97.7951 387.636 99.4701V111.128C387.636 111.932 387.77 111.999 388.239 111.999H398.088C398.356 111.999 398.624 111.999 398.624 111.597V78.5661C398.624 77.8961 398.49 77.7621 398.088 77.7621L388.239 78.9011C387.167 79.0351 386.966 79.2361 386.363 80.2411L380.534 90.4921C379.261 92.6361 378.122 94.7801 377.05 97.5941H376.849C376.983 95.6511 377.117 93.1051 377.117 91.1621V78.2311C377.117 77.8291 376.916 77.7621 376.715 77.7621L367.067 78.8341C366.531 78.9011 366.129 78.9681 366.129 79.5041V111.061Z" fill="white"/>
<path d="M32.2835 149.055C32.4175 148.653 32.5515 148.385 32.5515 148.117C32.5515 147.782 32.3505 147.514 31.8815 147.179C28.8665 144.968 25.1815 143.762 21.3625 143.762C10.3075 143.762 4.21051 151.065 4.21051 161.986C4.21051 172.371 9.63751 179.138 20.2905 179.138C23.1715 179.138 32.0825 177.262 32.0825 174.314C32.0825 174.046 31.9485 173.778 31.8145 173.51L29.2685 168.552C29.0005 168.016 28.7325 167.748 28.3975 167.748C28.1295 167.748 27.7945 167.882 27.3255 168.15C25.5835 169.155 23.7745 170.16 21.5635 170.16C18.8165 170.16 16.1365 168.15 16.1365 161.651C16.1365 154.884 18.8835 152.74 21.4965 152.74C23.8415 152.74 25.9855 153.745 28.3305 155.219C28.6655 155.42 28.9335 155.554 29.1345 155.554C29.4025 155.554 29.5365 155.353 29.7375 154.951L32.2835 149.055ZM89.5586 176.391L75.4886 133.176C75.0866 132.104 75.0196 132.037 73.9476 132.037H63.9646C62.8256 132.037 62.7586 132.171 62.4906 133.176L48.4876 176.391C48.3536 176.726 48.2196 177.061 48.2196 177.329C48.2196 177.731 48.5546 177.999 49.6266 177.999H60.0786C61.1506 177.999 61.1506 177.932 61.4856 176.86L64.2326 167.279H73.0096L75.5556 176.86C75.8236 177.932 75.8906 177.999 77.0296 177.999H88.3526C89.3576 177.999 89.6926 177.798 89.6926 177.195C89.6926 176.994 89.6256 176.726 89.5586 176.391ZM71.1336 158.234H65.7066L67.4486 150.395C67.8506 148.452 68.3196 144.901 68.5876 142.757C68.8556 144.767 69.4586 148.519 69.7936 150.395L71.1336 158.234ZM112.706 175.587L110.964 168.686C110.897 168.351 110.696 168.284 110.428 168.284C109.959 168.284 108.418 169.021 106.877 169.021C106.341 169.021 105.939 168.418 105.939 167.547V130.764C105.939 129.826 105.872 129.558 105.336 129.558C105.135 129.558 104.867 129.558 104.532 129.625L94.482 130.965C93.678 131.099 93.611 131.367 93.611 132.439L93.678 167.882C93.678 171.835 94.281 174.18 96.224 176.324C98.033 178.2 100.914 179.138 103.929 179.138C106.14 179.138 112.773 177.731 112.773 176.056C112.773 175.922 112.773 175.788 112.706 175.587ZM147.818 161.383C147.818 150.864 143.53 143.762 134.217 143.762C131.269 143.762 128.991 144.499 126.445 146.643C125.909 145.169 125.373 143.762 124.636 143.762C124.167 143.762 123.698 143.829 123.229 143.963L115.457 146.308C115.122 146.375 114.921 146.509 114.921 146.777C114.921 147.916 116.261 150.864 116.261 154.616V190.93C116.261 191.801 116.261 192.069 116.797 192.069L127.584 190.796C128.187 190.729 128.321 190.595 128.321 189.724V177.932C129.795 178.602 131.47 179.272 133.48 179.272C143.53 179.272 147.818 172.974 147.818 161.383ZM136.16 161.584C136.16 169.825 134.686 171.634 131.805 171.634C130.666 171.634 129.393 171.433 128.321 170.964V153.812C129.862 152.606 131.202 152.204 132.341 152.204C134.485 152.204 136.16 154.482 136.16 161.584ZM183.769 162.991C183.769 150.663 179.28 143.762 168.694 143.762C158.376 143.762 152.212 151.4 152.212 161.718C152.212 172.572 157.907 179.138 169.029 179.138C172.714 179.138 177.605 178.401 182.161 175.319C182.63 175.051 182.831 174.85 182.831 174.582C182.831 174.448 182.764 174.247 182.63 174.046L179.615 168.418C179.347 167.949 179.079 167.681 178.744 167.681C178.543 167.681 178.342 167.748 178.007 167.949C175.461 169.356 173.384 170.428 169.364 170.428C166.014 170.428 164.138 168.619 163.736 163.929H182.697C183.367 163.929 183.769 163.862 183.769 162.991ZM172.446 156.76H163.736C164.406 152.539 165.478 151.132 168.292 151.132C170.905 151.132 172.178 152.405 172.446 156.76ZM220.23 176.994V155.018C220.23 147.849 217.014 143.762 209.51 143.762C206.16 143.762 203.212 144.834 200.331 147.38C199.527 144.633 198.656 143.762 197.852 143.762C197.651 143.762 197.45 143.762 197.249 143.829L188.74 145.638C188.338 145.705 188.204 145.839 188.204 146.174C188.204 147.648 189.41 150.462 189.41 155.018V177.128C189.41 177.865 189.477 177.999 190.415 177.999H200.465C201.403 177.999 201.47 177.865 201.47 177.329V153.812C203.212 152.539 204.485 152.07 205.892 152.07C207.433 152.07 208.17 153.276 208.17 155.286V176.994C208.17 177.865 208.237 177.999 209.175 177.999H219.493C220.163 177.999 220.23 177.865 220.23 176.994ZM277.371 172.84V153.276C277.371 152.271 277.237 152.003 276.098 152.003H260.621C259.348 152.003 259.214 152.137 259.214 153.41V160.847C259.214 161.986 259.348 162.053 260.487 162.053L265.847 162.12V168.418C264.842 168.753 263.234 168.954 262.363 168.954C255.663 168.954 254.792 159.909 254.792 154.683C254.792 144.097 258.209 141.685 262.229 141.685C266.182 141.685 269.063 143.36 271.207 144.432C271.475 144.566 271.81 144.767 272.145 144.767C272.346 144.767 272.547 144.7 272.681 144.432L276.433 136.593C276.5 136.392 276.567 136.258 276.567 136.124C276.567 135.789 276.366 135.387 276.098 135.186C272.748 132.305 266.785 130.898 261.894 130.898C248.36 130.898 241.861 140.01 241.794 155.286V155.554C241.794 170.629 248.159 179.138 261.76 179.138C267.723 179.138 277.371 175.989 277.371 172.84ZM315.444 161.517C315.444 150.931 309.749 143.762 299.163 143.762C288.577 143.762 282.614 150.931 282.614 161.383C282.614 172.103 288.376 179.138 299.096 179.138C309.481 179.138 315.444 171.835 315.444 161.517ZM303.518 161.45C303.518 168.887 301.843 170.964 299.029 170.964C296.215 170.964 294.54 168.954 294.54 161.517C294.54 153.946 296.215 151.936 299.029 151.936C301.843 151.936 303.518 154.013 303.518 161.45ZM339.943 175.587L338.201 168.686C338.134 168.351 337.933 168.284 337.665 168.284C337.196 168.284 335.655 169.021 334.114 169.021C333.578 169.021 333.176 168.418 333.176 167.547V130.764C333.176 129.826 333.109 129.558 332.573 129.558C332.372 129.558 332.104 129.558 331.769 129.625L321.719 130.965C320.915 131.099 320.848 131.367 320.848 132.439L320.915 167.882C320.915 171.835 321.518 174.18 323.461 176.324C325.27 178.2 328.151 179.138 331.166 179.138C333.377 179.138 340.01 177.731 340.01 176.056C340.01 175.922 340.01 175.788 339.943 175.587ZM374.385 174.85C373.849 173.108 373.179 172.036 373.179 169.222V130.63C373.179 129.759 372.911 129.558 372.442 129.558C372.241 129.558 372.04 129.558 371.839 129.625L361.722 131.3C361.186 131.367 361.119 131.702 361.119 132.238V144.834C359.444 144.164 357.836 143.695 356.161 143.695C352.074 143.695 348.59 144.901 345.977 147.782C342.761 151.333 342.024 155.219 342.024 162.053C342.024 171.768 345.91 179.138 354.553 179.138C357.367 179.138 360.449 178.066 363.263 175.989C363.799 177.932 364.402 178.87 365.139 178.87C365.608 178.87 365.943 178.87 366.613 178.669L373.916 176.391C374.385 176.257 374.586 176.056 374.586 175.721C374.586 175.52 374.519 175.252 374.385 174.85ZM361.119 169.356C360.047 170.227 358.372 170.897 357.032 170.897C354.888 170.897 353.213 168.82 353.213 161.182C353.213 153.41 354.888 151.467 357.501 151.467C358.64 151.467 359.98 151.735 361.119 152.137V169.356ZM396.348 132.707V132.305C396.348 131.501 396.08 131.3 394.941 131.3H383.417C382.278 131.3 382.077 131.434 382.077 132.238L383.752 159.038C383.819 160.177 383.953 160.378 385.092 160.378H393.333C394.472 160.378 394.606 160.177 394.673 159.038L396.348 132.707ZM397.018 172.572C397.018 168.351 393.534 164.867 389.313 164.867C385.092 164.867 381.608 168.351 381.608 172.572C381.608 176.793 385.092 180.277 389.313 180.277C393.534 180.277 397.018 176.793 397.018 172.572Z" fill="url(#paint0_linear)"/>
</g>
<defs>
<filter id="filter0_d" x="0.210449" y="0.0371094" width="398.413" height="196.032" filterUnits="userSpaceOnUse" color-interpolation-filters="sRGB">
<feFlood flood-opacity="0" result="BackgroundImageFix"/>
<feColorMatrix in="SourceAlpha" type="matrix" values="0 0 0 0 0 0 0 0 0 0 0 0 0 0 0 0 0 0 127 0"/>
<feOffset dx="-2" dy="2"/>
<feGaussianBlur stdDeviation="1"/>
<feColorMatrix type="matrix" values="0 0 0 0 0.407789 0 0 0 0 0.153002 0 0 0 0 0.000130266 0 0 0 0.75 0"/>
<feBlend mode="normal" in2="BackgroundImageFix" result="effect1_dropShadow"/>
<feBlend mode="normal" in="SourceGraphic" in2="effect1_dropShadow" result="shape"/>
</filter>
<linearGradient id="paint0_linear" x1="395.86" y1="56.8991" x2="168.535" y2="363.597" gradientUnits="userSpaceOnUse">
<stop offset="0.34855" stop-color="white"/>
<stop offset="0.806911" stop-color="#FFE686"/>
<stop offset="1" stop-color="#F7B545"/>
</linearGradient>
</defs>
</svg>
