<svg width="261" height="126" viewBox="0 0 261 126" fill="none" xmlns="http://www.w3.org/2000/svg">
<g filter="url(#filter0_d)">
<path d="M25.7592 20.432C25.7592 17.492 24.4152 15.182 21.3072 13.796C23.8272 12.452 24.7512 10.562 24.7512 8C24.7512 5.774 23.8272 3.548 22.2312 2.12C20.4252 0.523999 18.5772 0.187998 13.9992 0.187998H5.7252C4.9272 0.187998 4.8432 0.313999 4.8432 1.028V28.118C4.8432 28.916 4.9272 29 5.7252 29H14.3772C17.4012 29 18.1992 28.916 19.8372 28.538C23.3652 27.698 25.7592 24.128 25.7592 20.432ZM17.2752 8.672C17.2752 10.562 16.5192 11.528 14.4612 11.528H12.7392V5.984H14.2932C16.6872 5.984 17.2752 6.824 17.2752 8.672ZM18.1152 20.054C18.1152 21.818 17.3592 22.91 14.4612 22.91H12.7392V17.072H14.1252C17.5692 17.072 18.1152 18.038 18.1152 20.054ZM47.8456 27.488C47.4256 26.438 46.8796 25.304 46.8796 22.406V14.762C46.8796 9.764 43.7716 7.538 38.3956 7.538C35.6236 7.538 32.7256 7.958 30.6256 9.134C30.2476 9.344 30.0796 9.428 30.0796 9.638C30.0796 9.722 30.1216 9.806 30.1636 9.974L31.6756 14.132C31.7596 14.384 31.8856 14.468 32.0536 14.468C32.1376 14.468 32.2636 14.468 32.3896 14.384C34.4476 13.544 36.1276 13.082 37.4296 13.082C39.6136 13.082 39.8656 13.586 39.8656 14.342V15.56C34.4056 15.56 28.6936 16.988 28.6936 22.91C28.6936 27.026 31.3396 29.588 35.9176 29.588C37.8076 29.588 39.3196 28.916 40.9156 27.614C41.5456 29.084 41.7556 29.63 42.3436 29.63C42.6376 29.63 42.8896 29.588 43.1416 29.504L47.6356 28.202C47.8876 28.118 47.9296 28.034 47.9296 27.908C47.9296 27.782 47.8876 27.656 47.8456 27.488ZM39.8656 23.54C39.0256 24.38 38.0596 24.884 37.2196 24.884C36.1276 24.884 35.2036 24.044 35.2036 22.616C35.2036 21.02 36.3376 19.97 39.8656 19.97V23.54ZM67.142 8.252C66.764 8.252 66.428 8.294 66.302 8.714L64.538 14.72C64.16 16.064 63.824 17.114 63.53 18.71H63.362C62.984 16.61 62.648 15.476 62.312 14.384L60.632 8.714C60.506 8.294 60.17 8.252 59.792 8.252H53.534C52.988 8.252 52.778 8.294 52.736 8.882L50.972 28.496C50.972 28.916 51.182 29 51.518 29H57.23C57.692 29 58.028 29 58.028 28.37L58.196 16.862H58.364C58.784 18.962 59.162 20.138 59.54 21.398L60.8 25.766C60.926 26.228 61.052 26.312 61.64 26.312H65.21C65.798 26.312 65.924 26.228 66.05 25.766L67.226 21.692C67.562 20.558 68.15 18.206 68.444 16.862H68.654L68.864 28.37C68.864 29 69.2 29 69.662 29H75.374C75.752 29 75.92 28.832 75.92 28.496L74.198 8.882C74.156 8.294 73.946 8.252 73.4 8.252H67.142ZM108.732 8.84C108.732 8.378 108.606 8.252 108.144 8.252H92.5615C92.0155 8.252 91.9735 8.378 91.9735 8.84V10.856C91.9735 14.72 91.8895 16.568 91.6795 17.996C91.5535 18.92 91.0915 21.272 89.6215 23.876H87.8155C87.3955 23.876 87.3955 24.128 87.3955 24.464V34.292C87.3955 34.754 87.5215 34.88 87.9835 34.88H93.1075C93.6535 34.88 93.6955 34.754 93.6955 34.292V29H104.826V34.292C104.826 34.754 104.952 34.88 105.414 34.88H110.538C111.084 34.88 111.126 34.754 111.126 34.292V24.38C111.126 24.044 111.042 23.876 110.706 23.876H108.732V8.84ZM101.76 23.876H96.4255C97.5175 21.566 98.1895 18.29 98.1895 14.762V13.376H101.76V23.876ZM133.52 18.668C133.52 12.032 129.95 7.538 123.314 7.538C116.678 7.538 112.94 12.032 112.94 18.584C112.94 25.304 116.552 29.714 123.272 29.714C129.782 29.714 133.52 25.136 133.52 18.668ZM126.044 18.626C126.044 23.288 124.994 24.59 123.23 24.59C121.466 24.59 120.416 23.33 120.416 18.668C120.416 13.922 121.466 12.662 123.23 12.662C124.994 12.662 126.044 13.964 126.044 18.626ZM153.876 10.856C153.96 10.604 154.044 10.436 154.044 10.268C154.044 10.058 153.918 9.89 153.624 9.68C151.734 8.294 149.424 7.538 147.03 7.538C140.1 7.538 136.278 12.116 136.278 18.962C136.278 25.472 139.68 29.714 146.358 29.714C148.164 29.714 153.75 28.538 153.75 26.69C153.75 26.522 153.666 26.354 153.582 26.186L151.986 23.078C151.818 22.742 151.65 22.574 151.44 22.574C151.272 22.574 151.062 22.658 150.768 22.826C149.676 23.456 148.542 24.086 147.156 24.086C145.434 24.086 143.754 22.826 143.754 18.752C143.754 14.51 145.476 13.166 147.114 13.166C148.584 13.166 149.928 13.796 151.398 14.72C151.608 14.846 151.776 14.93 151.902 14.93C152.07 14.93 152.154 14.804 152.28 14.552L153.876 10.856ZM167.766 13.796H172.176C172.68 13.796 172.806 13.334 172.806 13.208L173.436 8.672C173.436 8.294 173.184 8.252 172.764 8.252H155.628C155.166 8.252 155.04 8.378 155.04 8.84V13.208C155.04 13.67 155.166 13.796 155.628 13.796H160.206V28.412C160.206 28.958 160.332 29 160.794 29H167.178C167.724 29 167.766 28.874 167.766 28.412V13.796ZM192.139 27.488C191.719 26.438 191.173 25.304 191.173 22.406V14.762C191.173 9.764 188.065 7.538 182.689 7.538C179.917 7.538 177.019 7.958 174.919 9.134C174.541 9.344 174.373 9.428 174.373 9.638C174.373 9.722 174.415 9.806 174.457 9.974L175.969 14.132C176.053 14.384 176.179 14.468 176.347 14.468C176.431 14.468 176.557 14.468 176.683 14.384C178.741 13.544 180.421 13.082 181.723 13.082C183.907 13.082 184.159 13.586 184.159 14.342V15.56C178.699 15.56 172.987 16.988 172.987 22.91C172.987 27.026 175.633 29.588 180.211 29.588C182.101 29.588 183.613 28.916 185.209 27.614C185.839 29.084 186.049 29.63 186.637 29.63C186.931 29.63 187.183 29.588 187.435 29.504L191.929 28.202C192.181 28.118 192.223 28.034 192.223 27.908C192.223 27.782 192.181 27.656 192.139 27.488ZM184.159 23.54C183.319 24.38 182.353 24.884 181.513 24.884C180.421 24.884 179.497 24.044 179.497 22.616C179.497 21.02 180.631 19.97 184.159 19.97V23.54ZM205.933 29C208.201 29 211.519 28.832 213.451 27.026C214.837 25.724 215.005 24.17 215.005 22.784C215.005 21.272 214.375 18.752 211.225 17.996C214.039 17.114 214.375 14.678 214.375 13.46C214.375 11.024 213.199 9.722 211.981 9.05C210.595 8.294 208.831 8.252 205.891 8.252H196.273C195.727 8.252 195.685 8.378 195.685 8.84V28.412C195.685 28.958 195.811 29 196.273 29H205.933ZM202.909 12.746H205.261C206.059 12.746 207.193 13.208 207.193 14.468C207.193 16.232 205.933 16.358 205.135 16.358H202.909V12.746ZM202.909 20.558H205.345C206.437 20.558 207.697 21.062 207.697 22.532C207.697 23.498 207.067 24.506 205.429 24.506H202.909V20.558ZM226.132 20.936H227.392C228.736 20.936 229.282 21.65 229.576 22.994L229.954 24.926C231.004 29.924 235.162 29.714 236.926 29.714C237.976 29.714 238.102 29.546 238.186 29.084L239.026 25.388C239.068 25.262 239.068 25.178 239.068 25.052C239.068 24.716 238.942 24.422 238.438 24.338L237.934 24.254C237.22 24.128 236.548 24.38 236.044 22.322L235.75 21.188C235.372 19.634 234.448 18.542 233.146 18.164V18.038C234.49 17.66 235.12 16.736 235.456 15.686L235.96 14.174C236.254 13.418 236.464 12.788 237.598 12.578L238.354 12.452C238.648 12.41 238.816 12.158 238.816 11.864C238.816 11.78 238.774 11.738 238.774 11.654L237.808 7.706C237.682 7.244 237.22 7.202 236.758 7.202C234.112 7.202 231.172 8.168 230.248 11.654L229.912 13.082C229.618 14.384 229.072 15.392 227.644 15.392H226.132V8.084C226.132 7.706 226.048 7.58 225.838 7.58C225.712 7.58 225.544 7.622 225.292 7.664L219.16 8.294C218.74 8.336 218.572 8.378 218.572 8.84V28.454C218.572 29 218.782 29 219.202 29H225.712C226.132 29 226.132 29 226.132 28.412V20.936ZM259.978 27.488C259.558 26.438 259.012 25.304 259.012 22.406V14.762C259.012 9.764 255.904 7.538 250.528 7.538C247.756 7.538 244.858 7.958 242.758 9.134C242.38 9.344 242.212 9.428 242.212 9.638C242.212 9.722 242.254 9.806 242.296 9.974L243.808 14.132C243.892 14.384 244.018 14.468 244.186 14.468C244.27 14.468 244.396 14.468 244.522 14.384C246.58 13.544 248.26 13.082 249.562 13.082C251.746 13.082 251.998 13.586 251.998 14.342V15.56C246.538 15.56 240.826 16.988 240.826 22.91C240.826 27.026 243.472 29.588 248.05 29.588C249.94 29.588 251.452 28.916 253.048 27.614C253.678 29.084 253.888 29.63 254.476 29.63C254.77 29.63 255.022 29.588 255.274 29.504L259.768 28.202C260.02 28.118 260.062 28.034 260.062 27.908C260.062 27.782 260.02 27.656 259.978 27.488ZM251.998 23.54C251.158 24.38 250.192 24.884 249.352 24.884C248.26 24.884 247.336 24.044 247.336 22.616C247.336 21.02 248.47 19.97 251.998 19.97V23.54ZM25.6197 52.856C25.7037 52.604 25.7877 52.436 25.7877 52.268C25.7877 52.058 25.6617 51.89 25.3677 51.68C23.4777 50.294 21.1677 49.538 18.7737 49.538C11.8437 49.538 8.02174 54.116 8.02174 60.962C8.02174 67.472 11.4237 71.714 18.1017 71.714C19.9077 71.714 25.4937 70.538 25.4937 68.69C25.4937 68.522 25.4097 68.354 25.3257 68.186L23.7297 65.078C23.5617 64.742 23.3937 64.574 23.1837 64.574C23.0157 64.574 22.8057 64.658 22.5117 64.826C21.4197 65.456 20.2857 66.086 18.8997 66.086C17.1777 66.086 15.4977 64.826 15.4977 60.752C15.4977 56.51 17.2197 55.166 18.8577 55.166C20.3277 55.166 21.6717 55.796 23.1417 56.72C23.3517 56.846 23.5197 56.93 23.6457 56.93C23.8137 56.93 23.8977 56.804 24.0237 56.552L25.6197 52.856ZM38.7123 71C40.9803 71 44.2983 70.832 46.2303 69.026C47.6163 67.724 47.7843 66.17 47.7843 64.784C47.7843 63.272 47.1543 60.752 44.0043 59.996C46.8183 59.114 47.1543 56.678 47.1543 55.46C47.1543 53.024 45.9783 51.722 44.7603 51.05C43.3743 50.294 41.6103 50.252 38.6703 50.252H29.0523C28.5063 50.252 28.4643 50.378 28.4643 50.84V70.412C28.4643 70.958 28.5903 71 29.0523 71H38.7123ZM35.6883 54.746H38.0403C38.8383 54.746 39.9723 55.208 39.9723 56.468C39.9723 58.232 38.7123 58.358 37.9143 58.358H35.6883V54.746ZM35.6883 62.558H38.1243C39.2163 62.558 40.4763 63.062 40.4763 64.532C40.4763 65.498 39.8463 66.506 38.2083 66.506H35.6883V62.558ZM70.419 61.592C70.419 53.864 67.605 49.538 60.969 49.538C54.501 49.538 50.637 54.326 50.637 60.794C50.637 67.598 54.207 71.714 61.179 71.714C63.489 71.714 66.555 71.252 69.411 69.32C69.705 69.152 69.831 69.026 69.831 68.858C69.831 68.774 69.789 68.648 69.705 68.522L67.815 64.994C67.647 64.7 67.479 64.532 67.269 64.532C67.143 64.532 67.017 64.574 66.807 64.7C65.211 65.582 63.909 66.254 61.389 66.254C59.289 66.254 58.113 65.12 57.861 62.18H69.747C70.167 62.18 70.419 62.138 70.419 61.592ZM63.321 57.686H57.861C58.281 55.04 58.953 54.158 60.717 54.158C62.355 54.158 63.153 54.956 63.321 57.686ZM91.0485 62.936H91.7205C93.2325 62.936 93.7785 63.86 94.1145 65.246L94.4925 67.052C95.2065 70.118 97.3485 71.714 101.297 71.714C101.885 71.714 102.305 71.672 102.431 71.084L103.271 67.052C103.271 66.716 103.061 66.422 102.683 66.338L102.095 66.254C100.751 66.044 100.625 65.288 100.373 64.532L100.037 63.398C99.7005 62.306 98.9865 60.626 97.0545 60.164V60.038C98.6925 59.702 99.3225 58.526 99.5325 57.602L99.7845 56.594C100.163 55.124 100.793 55.04 101.717 54.872L102.221 54.788C102.515 54.746 102.767 54.536 102.767 54.2C102.767 54.116 102.767 54.032 102.725 53.948L101.717 50.042C101.591 49.58 101.129 49.538 100.625 49.538C96.8445 49.538 95.1645 51.596 94.6605 53.906L94.3665 55.25C94.0725 56.804 93.3165 57.392 91.8465 57.392H91.0485V49.916C91.0485 49.664 90.9225 49.622 90.7965 49.622L84.9165 50.294C84.5805 50.336 84.3285 50.336 84.3285 50.798V57.392H83.5305C82.0605 57.392 81.3045 56.804 81.0105 55.25L80.7165 53.906C80.2125 51.596 78.5325 49.538 74.7525 49.538C74.2485 49.538 73.7865 49.58 73.6605 50.042L72.6525 53.948C72.6105 54.032 72.6105 54.116 72.6105 54.2C72.6105 54.536 72.8625 54.746 73.1565 54.788L73.6605 54.872C74.5845 55.04 75.2145 55.124 75.5925 56.594L75.8445 57.602C76.0545 58.526 76.6845 59.702 78.3225 60.038V60.164C76.3905 60.626 75.6765 62.306 75.3405 63.398L75.0045 64.532C74.7525 65.288 74.6265 66.044 73.2825 66.254L72.6945 66.338C72.3165 66.422 72.1065 66.716 72.1065 67.052L72.9465 71.084C73.0725 71.672 73.4925 71.714 74.0805 71.714C78.0285 71.714 80.1705 70.118 80.8845 67.052L81.2625 65.246C81.5985 63.86 82.1445 62.936 83.6565 62.936H84.3285V70.454C84.3285 70.706 84.3705 71 84.7065 71H90.7545C90.9645 71 91.0485 70.958 91.0485 70.664V62.936ZM105.779 70.412C105.779 70.958 105.905 71 106.367 71H112.793C113.213 71 113.339 70.79 113.465 70.58L116.909 64.196C118.295 61.676 118.883 60.332 119.303 59.24H119.471C119.387 60.122 119.261 62.096 119.261 63.146V70.454C119.261 70.958 119.345 71 119.639 71H125.813C125.981 71 126.149 71 126.149 70.748V50.042C126.149 49.622 126.065 49.538 125.813 49.538L119.639 50.252C118.967 50.336 118.841 50.462 118.463 51.092L114.809 57.518C114.011 58.862 113.297 60.206 112.625 61.97H112.499C112.583 60.752 112.667 59.156 112.667 57.938V49.832C112.667 49.58 112.541 49.538 112.415 49.538L106.367 50.21C106.031 50.252 105.779 50.294 105.779 50.63V70.412ZM151.305 69.908L144.753 60.542L150.927 52.436C151.095 52.226 151.179 52.058 151.179 51.89C151.179 51.68 151.011 51.512 150.591 51.428L144.039 50.084C143.829 50.042 143.661 50 143.535 50C143.325 50 143.241 50.084 143.073 50.378L140.847 54.032C140.511 54.536 140.259 55.208 140.049 55.67C139.881 55.292 139.587 54.494 139.377 54.032L137.487 50.378C137.319 50.126 137.235 50 136.983 50C136.899 50 136.731 50 136.563 50.042L129.927 51.218C129.507 51.302 129.339 51.428 129.339 51.638C129.339 51.806 129.423 51.974 129.591 52.226L135.471 60.542L128.961 69.362C128.793 69.572 128.709 69.74 128.709 69.908C128.709 70.118 128.919 70.286 129.297 70.37L135.933 71.588C136.143 71.63 136.227 71.63 136.353 71.63C136.563 71.63 136.647 71.546 136.815 71.294L139.335 66.968C139.713 66.296 139.881 65.624 140.091 65.162C140.301 65.624 140.469 66.212 140.889 66.968L143.283 71.294C143.409 71.588 143.535 71.672 143.787 71.672C143.913 71.672 144.039 71.63 144.207 71.63L150.969 70.916C151.347 70.874 151.515 70.706 151.515 70.454C151.515 70.286 151.431 70.118 151.305 69.908ZM163.734 70.412C163.734 70.958 163.86 71 164.322 71H170.748C171.168 71 171.294 70.79 171.42 70.58L174.864 64.196C176.25 61.676 176.838 60.332 177.258 59.24H177.426C177.342 60.122 177.216 62.096 177.216 63.146V70.454C177.216 70.958 177.3 71 177.594 71H183.768C183.936 71 184.104 71 184.104 70.748V50.042C184.104 49.622 184.02 49.538 183.768 49.538L177.594 50.252C176.922 50.336 176.796 50.462 176.418 51.092L172.764 57.518C171.966 58.862 171.252 60.206 170.58 61.97H170.454C170.538 60.752 170.622 59.156 170.622 57.938V49.832C170.622 49.58 170.496 49.538 170.37 49.538L164.322 50.21C163.986 50.252 163.734 50.294 163.734 50.63V70.412ZM207.538 50.84C207.538 50.378 207.412 50.252 206.95 50.252H191.368C190.822 50.252 190.78 50.378 190.78 50.84V52.856C190.78 56.72 190.696 58.568 190.486 59.996C190.36 60.92 189.898 63.272 188.428 65.876H186.622C186.202 65.876 186.202 66.128 186.202 66.464V76.292C186.202 76.754 186.328 76.88 186.79 76.88H191.914C192.46 76.88 192.502 76.754 192.502 76.292V71H203.632V76.292C203.632 76.754 203.758 76.88 204.22 76.88H209.344C209.89 76.88 209.932 76.754 209.932 76.292V66.38C209.932 66.044 209.848 65.876 209.512 65.876H207.538V50.84ZM200.566 65.876H195.232C196.324 63.566 196.996 60.29 196.996 56.762V55.376H200.566V65.876ZM231.528 61.592C231.528 53.864 228.714 49.538 222.078 49.538C215.61 49.538 211.746 54.326 211.746 60.794C211.746 67.598 215.316 71.714 222.288 71.714C224.598 71.714 227.664 71.252 230.52 69.32C230.814 69.152 230.94 69.026 230.94 68.858C230.94 68.774 230.898 68.648 230.814 68.522L228.924 64.994C228.756 64.7 228.588 64.532 228.378 64.532C228.252 64.532 228.126 64.574 227.916 64.7C226.32 65.582 225.018 66.254 222.498 66.254C220.398 66.254 219.222 65.12 218.97 62.18H230.856C231.276 62.18 231.528 62.138 231.528 61.592ZM224.43 57.686H218.97C219.39 55.04 220.062 54.158 221.826 54.158C223.464 54.158 224.262 54.956 224.43 57.686ZM249.092 40.844C248.966 40.844 248.882 40.802 248.756 40.802C247.958 40.802 248.462 43.868 245.648 43.868C242.288 43.868 243.254 40.802 242.372 40.802C242.246 40.802 242.162 40.844 242.036 40.844L238.382 41.222C238.298 41.222 237.962 41.348 237.962 41.936C237.962 42.944 238.634 47.858 245.48 47.858C249.764 47.858 251.612 45.758 252.368 44.54C253.04 43.49 253.166 42.566 253.166 41.936C253.166 41.348 252.872 41.222 252.746 41.222L249.092 40.844ZM234.896 70.412C234.896 70.958 235.022 71 235.484 71H241.91C242.33 71 242.456 70.79 242.582 70.58L246.026 64.196C247.412 61.676 248 60.332 248.42 59.24H248.588C248.504 60.122 248.378 62.096 248.378 63.146V70.454C248.378 70.958 248.462 71 248.756 71H254.93C255.098 71 255.266 71 255.266 70.748V50.042C255.266 49.622 255.182 49.538 254.93 49.538L248.756 50.252C248.084 50.336 247.958 50.462 247.58 51.092L243.926 57.518C243.128 58.862 242.414 60.206 241.742 61.97H241.616C241.7 60.752 241.784 59.156 241.784 57.938V49.832C241.784 49.58 241.658 49.538 241.532 49.538L235.484 50.21C235.148 50.252 234.896 50.294 234.896 50.63V70.412Z" fill="white"/>
<path d="M34.2073 94.73C34.2493 94.646 34.2913 94.562 34.2913 94.478C34.2913 93.092 30.2593 91.874 28.2433 91.874C22.6153 91.874 19.1293 96.2 19.1293 103.214C19.1293 109.808 22.2373 113.63 27.6133 113.63C29.3353 113.63 33.9553 112.454 33.9553 111.152C33.9553 111.026 33.8713 110.858 33.7873 110.648L32.9473 108.59C32.8633 108.422 32.7793 108.296 32.6533 108.296C32.5273 108.296 32.4013 108.38 32.2333 108.506C30.9313 109.514 29.8393 110.186 28.1173 110.186C25.0933 110.186 23.6653 107.75 23.6653 102.71C23.6653 97.712 25.1353 95.318 28.2853 95.318C29.5453 95.318 30.5113 95.696 32.1493 96.998C32.2333 97.082 32.3593 97.166 32.5273 97.166C32.6113 97.166 32.7373 97.124 32.8213 96.998L34.2073 94.73ZM67.2376 111.95L58.8796 84.776C58.7116 84.23 58.7116 84.188 58.1236 84.188H54.6796C54.1336 84.188 54.0916 84.23 53.9236 84.776L45.5656 111.95C45.4816 112.16 45.4396 112.412 45.4396 112.58C45.4396 112.832 45.6076 113 46.1536 113H49.5136C50.0176 113 50.1856 112.916 50.3116 112.412L52.3696 104.894H60.1816L62.2396 112.412C62.3656 112.916 62.5336 113 63.0376 113H66.6496C67.1956 113 67.3636 112.832 67.3636 112.538C67.3636 112.37 67.3216 112.16 67.2376 111.95ZM59.2156 101.45H53.0416L55.2256 93.008C55.5616 91.622 55.8556 90.152 56.1496 88.388C56.4856 90.194 56.7796 91.664 57.1156 93.008L59.2156 101.45ZM79.9436 112.076L79.2296 109.64C79.1456 109.43 79.0196 109.346 78.8936 109.346C78.7676 109.346 78.6836 109.388 78.5156 109.472C77.9696 109.724 77.4656 109.808 77.0036 109.808C76.0376 109.808 75.5756 109.346 75.5756 108.002V83.18C75.5756 82.76 75.5336 82.55 75.2396 82.55C75.1556 82.55 75.0716 82.55 74.9456 82.592L71.7956 83.264C71.4596 83.348 71.2496 83.6 71.2496 83.936V104.516C71.2496 109.598 70.8296 113.546 76.0796 113.546C77.2556 113.546 80.0696 113.084 80.0696 112.496C80.0696 112.37 79.9856 112.244 79.9436 112.076ZM99.657 102.332C99.657 95.444 97.263 91.874 92.727 91.874C90.669 91.874 89.157 92.546 87.099 94.226C86.805 93.218 86.175 91.832 85.713 91.832C85.629 91.832 85.503 91.874 85.377 91.958L82.647 93.344C82.479 93.428 82.395 93.554 82.395 93.722C82.395 93.932 82.563 94.226 82.731 94.646C83.319 95.822 83.445 96.578 83.445 98.342V121.274C83.445 121.778 83.529 121.904 83.781 121.904C83.865 121.904 83.991 121.904 84.117 121.862L87.183 121.106C87.645 120.98 87.687 120.896 87.687 120.476V112.16C89.409 113.252 90.627 113.63 92.307 113.63C97.053 113.63 99.657 109.64 99.657 102.332ZM95.289 102.458C95.289 108.086 94.323 110.102 91.467 110.102C90.207 110.102 89.241 109.766 87.687 108.842V97.208C89.451 95.864 90.501 95.402 91.761 95.402C94.281 95.402 95.289 97.502 95.289 102.458ZM120.214 102.29C120.214 95.57 117.4 91.874 112.234 91.874C106.942 91.874 103.498 96.2 103.498 102.836C103.498 109.64 106.816 113.63 112.528 113.63C114.67 113.63 119.71 112.496 119.71 111.278C119.71 111.152 119.668 111.026 119.584 110.858L118.618 108.758C118.534 108.548 118.408 108.422 118.282 108.422C118.198 108.422 118.156 108.464 118.072 108.506C116.77 109.094 115.426 110.018 112.948 110.018C109.714 110.018 108.034 107.918 107.866 103.844H119.542C120.172 103.844 120.214 103.382 120.214 102.584V102.29ZM115.72 100.61H107.908C108.202 96.83 109.462 95.066 111.982 95.066C114.46 95.066 115.636 96.872 115.72 100.61ZM141.192 112.412V98.342C141.192 93.638 139.554 91.916 135.648 91.916C133.044 91.916 131.49 93.134 129.432 94.73C128.802 92.798 128.382 91.874 127.962 91.874C127.878 91.874 127.794 91.874 127.71 91.916L124.938 93.176C124.728 93.302 124.644 93.386 124.644 93.512C124.644 93.638 124.686 93.764 124.77 93.932C125.358 95.192 125.568 96.326 125.568 98.09V112.412C125.568 112.916 125.652 113 126.156 113H129.18C129.684 113 129.768 112.916 129.768 112.412V97.586C131.532 95.99 132.75 95.402 134.346 95.402C136.194 95.402 136.992 96.452 136.992 98.93V112.412C136.992 112.916 136.992 113 137.538 113H140.562C141.066 113 141.192 112.916 141.192 112.412ZM174.936 110.9V98.888C174.936 98.258 174.768 98.132 174.18 98.132H167.376C166.746 98.132 166.662 98.258 166.662 98.888V101.156C166.662 101.786 166.746 101.87 167.376 101.87H170.61V109.136C169.518 109.64 168.468 109.892 167.376 109.892C161.412 109.892 161.118 103.004 161.118 98.258C161.118 90.698 163.008 87.212 167.166 87.212C168.888 87.212 169.98 87.59 172.332 88.976C172.584 89.102 172.92 89.27 173.172 88.808L174.264 86.666C174.474 86.246 174.516 85.952 174.096 85.658C172.248 84.314 169.644 83.516 167.082 83.516C160.026 83.516 156.33 88.766 156.33 98.804C156.33 108.59 159.942 113.63 166.998 113.63C169.686 113.63 172.416 112.958 174.264 111.824C174.81 111.488 174.936 111.32 174.936 110.9ZM196.932 102.71C196.932 95.864 193.698 91.874 188.28 91.874C182.736 91.874 179.418 95.99 179.418 102.794C179.418 109.64 182.61 113.63 188.07 113.63C193.572 113.63 196.932 109.472 196.932 102.71ZM192.396 102.626C192.396 107.834 191.094 110.186 188.196 110.186C185.298 110.186 183.954 107.834 183.954 102.626C183.954 97.628 185.34 95.318 188.196 95.318C191.052 95.318 192.396 97.628 192.396 102.626ZM210.742 112.076L210.028 109.64C209.944 109.43 209.818 109.346 209.692 109.346C209.566 109.346 209.482 109.388 209.314 109.472C208.768 109.724 208.264 109.808 207.802 109.808C206.836 109.808 206.374 109.346 206.374 108.002V83.18C206.374 82.76 206.332 82.55 206.038 82.55C205.954 82.55 205.87 82.55 205.744 82.592L202.594 83.264C202.258 83.348 202.048 83.6 202.048 83.936V104.516C202.048 109.598 201.628 113.546 206.878 113.546C208.054 113.546 210.868 113.084 210.868 112.496C210.868 112.37 210.784 112.244 210.742 112.076ZM229.448 112.118C229.658 112.034 229.7 111.95 229.7 111.824C229.7 111.614 229.49 111.404 229.364 111.152C228.692 109.976 228.608 109.178 228.608 107.078V83.18C228.608 82.718 228.524 82.55 228.272 82.55C228.146 82.55 228.02 82.592 227.852 82.634L224.87 83.264C224.492 83.348 224.408 83.516 224.408 83.936V93.176C222.77 92.252 221.51 91.874 220.04 91.874C215.378 91.874 212.354 95.822 212.354 103.046C212.354 109.682 214.874 113.63 219.074 113.63C221.09 113.63 222.812 112.958 225.122 111.152C225.416 112.37 225.794 113.462 226.424 113.462C226.55 113.462 226.676 113.462 226.802 113.378L229.448 112.118ZM224.408 108.17C223.022 109.514 221.72 110.102 220.292 110.102C217.73 110.102 216.722 107.96 216.722 102.584C216.722 97.418 217.856 95.402 220.754 95.402C221.972 95.402 223.022 95.696 224.408 96.452V108.17ZM241.99 84.692C242.032 84.104 241.948 83.936 241.276 83.936H237.454C236.782 83.936 236.74 84.104 236.782 84.692L237.748 101.408C237.79 101.996 237.874 102.122 238.462 102.122H240.31C240.94 102.122 241.024 101.996 241.066 101.408L241.99 84.692ZM242.704 110.564C242.704 108.8 241.276 107.33 239.47 107.33C237.664 107.33 236.236 108.8 236.236 110.564C236.236 112.37 237.664 113.882 239.47 113.882C241.276 113.882 242.704 112.37 242.704 110.564Z" fill="url(#paint0_linear)"/>
</g>
<defs>
<filter id="filter0_d" x="0.843262" y="0.187988" width="259.219" height="125.716" filterUnits="userSpaceOnUse" color-interpolation-filters="sRGB">
<feFlood flood-opacity="0" result="BackgroundImageFix"/>
<feColorMatrix in="SourceAlpha" type="matrix" values="0 0 0 0 0 0 0 0 0 0 0 0 0 0 0 0 0 0 127 0"/>
<feOffset dx="-2" dy="2"/>
<feGaussianBlur stdDeviation="1"/>
<feColorMatrix type="matrix" values="0 0 0 0 0.407789 0 0 0 0 0.153002 0 0 0 0 0.000130266 0 0 0 0.75 0"/>
<feBlend mode="normal" in2="BackgroundImageFix" result="effect1_dropShadow"/>
<feBlend mode="normal" in="SourceGraphic" in2="effect1_dropShadow" result="shape"/>
</filter>
<linearGradient id="paint0_linear" x1="275.44" y1="32.09" x2="159.947" y2="242.496" gradientUnits="userSpaceOnUse">
<stop offset="0.34855" stop-color="white"/>
<stop offset="0.806911" stop-color="#FFE686"/>
<stop offset="1" stop-color="#F7B545"/>
</linearGradient>
</defs>
</svg>
