<svg width="413" height="197" viewBox="0 0 413 197" fill="none" xmlns="http://www.w3.org/2000/svg">
<g filter="url(#filter0_d)">
<path d="M38.984 32.3311C38.984 27.6411 36.84 23.9561 31.882 21.7451C35.902 19.6011 37.376 16.5861 37.376 12.4991C37.376 8.94808 35.902 5.39708 33.356 3.11908C30.475 0.573082 27.527 0.0370812 20.224 0.0370812H7.025C5.752 0.0370812 5.618 0.238083 5.618 1.37708V44.5921C5.618 45.8651 5.752 45.9991 7.025 45.9991H20.827C25.651 45.9991 26.924 45.8651 29.537 45.2621C35.165 43.9221 38.984 38.2271 38.984 32.3311ZM25.45 13.5711C25.45 16.5861 24.244 18.1271 20.961 18.1271H18.214V9.28308H20.693C24.512 9.28308 25.45 10.6231 25.45 13.5711ZM26.79 31.7281C26.79 34.5421 25.584 36.2841 20.961 36.2841H18.214V26.9711H20.425C25.919 26.9711 26.79 28.5121 26.79 31.7281ZM74.2171 43.5871C73.5471 41.9121 72.6761 40.1031 72.6761 35.4801V23.2861C72.6761 15.3131 67.7181 11.7621 59.1421 11.7621C54.7201 11.7621 50.0971 12.4321 46.7471 14.3081C46.1441 14.6431 45.8761 14.7771 45.8761 15.1121C45.8761 15.2461 45.9431 15.3801 46.0101 15.6481L48.4221 22.2811C48.5561 22.6831 48.7571 22.8171 49.0251 22.8171C49.1591 22.8171 49.3601 22.8171 49.5611 22.6831C52.8441 21.3431 55.5241 20.6061 57.6011 20.6061C61.0851 20.6061 61.4871 21.4101 61.4871 22.6161V24.5591C52.7771 24.5591 43.6651 26.8371 43.6651 36.2841C43.6651 42.8501 47.8861 46.9371 55.1891 46.9371C58.2041 46.9371 60.6161 45.8651 63.1621 43.7881C64.1671 46.1331 64.5021 47.0041 65.4401 47.0041C65.9091 47.0041 66.3111 46.9371 66.7131 46.8031L73.8821 44.7261C74.2841 44.5921 74.3511 44.4581 74.3511 44.2571C74.3511 44.0561 74.2841 43.8551 74.2171 43.5871ZM61.4871 37.2891C60.1471 38.6291 58.6061 39.4331 57.2661 39.4331C55.5241 39.4331 54.0501 38.0931 54.0501 35.8151C54.0501 33.2691 55.8591 31.5941 61.4871 31.5941V37.2891ZM104.999 12.9011C104.396 12.9011 103.86 12.9681 103.659 13.6381L100.845 23.2191C100.242 25.3631 99.7064 27.0381 99.2374 29.5841H98.9694C98.3664 26.2341 97.8304 24.4251 97.2944 22.6831L94.6144 13.6381C94.4134 12.9681 93.8774 12.9011 93.2744 12.9011H83.2914C82.4204 12.9011 82.0854 12.9681 82.0184 13.9061L79.2044 45.1951C79.2044 45.8651 79.5394 45.9991 80.0754 45.9991H89.1874C89.9244 45.9991 90.4604 45.9991 90.4604 44.9941L90.7284 26.6361H90.9964C91.6664 29.9861 92.2694 31.8621 92.8724 33.8721L94.8824 40.8401C95.0834 41.5771 95.2844 41.7111 96.2224 41.7111H101.917C102.855 41.7111 103.056 41.5771 103.257 40.8401L105.133 34.3411C105.669 32.5321 106.607 28.7801 107.076 26.6361H107.411L107.746 44.9941C107.746 45.9991 108.282 45.9991 109.019 45.9991H118.131C118.734 45.9991 119.002 45.7311 119.002 45.1951L116.255 13.9061C116.188 12.9681 115.853 12.9011 114.982 12.9011H104.999ZM171.345 13.8391C171.345 13.1021 171.144 12.9011 170.407 12.9011H145.55C144.679 12.9011 144.612 13.1021 144.612 13.8391V17.0551C144.612 23.2191 144.478 26.1671 144.143 28.4451C143.942 29.9191 143.205 33.6711 140.86 37.8251H137.979C137.309 37.8251 137.309 38.2271 137.309 38.7631V54.4411C137.309 55.1781 137.51 55.3791 138.247 55.3791H146.421C147.292 55.3791 147.359 55.1781 147.359 54.4411V45.9991H165.114V54.4411C165.114 55.1781 165.315 55.3791 166.052 55.3791H174.226C175.097 55.3791 175.164 55.1781 175.164 54.4411V38.6291C175.164 38.0931 175.03 37.8251 174.494 37.8251H171.345V13.8391ZM160.223 37.8251H151.714C153.456 34.1401 154.528 28.9141 154.528 23.2861V21.0751H160.223V37.8251ZM210.888 29.5171C210.888 18.9311 205.193 11.7621 194.607 11.7621C184.021 11.7621 178.058 18.9311 178.058 29.3831C178.058 40.1031 183.82 47.1381 194.54 47.1381C204.925 47.1381 210.888 39.8351 210.888 29.5171ZM198.962 29.4501C198.962 36.8871 197.287 38.9641 194.473 38.9641C191.659 38.9641 189.984 36.9541 189.984 29.5171C189.984 21.9461 191.659 19.9361 194.473 19.9361C197.287 19.9361 198.962 22.0131 198.962 29.4501ZM243.36 17.0551C243.494 16.6531 243.628 16.3851 243.628 16.1171C243.628 15.7821 243.427 15.5141 242.958 15.1791C239.943 12.9681 236.258 11.7621 232.439 11.7621C221.384 11.7621 215.287 19.0651 215.287 29.9861C215.287 40.3711 220.714 47.1381 231.367 47.1381C234.248 47.1381 243.159 45.2621 243.159 42.3141C243.159 42.0461 243.025 41.7781 242.891 41.5101L240.345 36.5521C240.077 36.0161 239.809 35.7481 239.474 35.7481C239.206 35.7481 238.871 35.8821 238.402 36.1501C236.66 37.1551 234.851 38.1601 232.64 38.1601C229.893 38.1601 227.213 36.1501 227.213 29.6511C227.213 22.8841 229.96 20.7401 232.573 20.7401C234.918 20.7401 237.062 21.7451 239.407 23.2191C239.742 23.4201 240.01 23.5541 240.211 23.5541C240.479 23.5541 240.613 23.3531 240.814 22.9511L243.36 17.0551ZM265.519 21.7451H272.554C273.358 21.7451 273.559 21.0081 273.559 20.8071L274.564 13.5711C274.564 12.9681 274.162 12.9011 273.492 12.9011H246.156C245.419 12.9011 245.218 13.1021 245.218 13.8391V20.8071C245.218 21.5441 245.419 21.7451 246.156 21.7451H253.459V45.0611C253.459 45.9321 253.66 45.9991 254.397 45.9991H264.581C265.452 45.9991 265.519 45.7981 265.519 45.0611V21.7451ZM304.399 43.5871C303.729 41.9121 302.858 40.1031 302.858 35.4801V23.2861C302.858 15.3131 297.9 11.7621 289.324 11.7621C284.902 11.7621 280.279 12.4321 276.929 14.3081C276.326 14.6431 276.058 14.7771 276.058 15.1121C276.058 15.2461 276.125 15.3801 276.192 15.6481L278.604 22.2811C278.738 22.6831 278.939 22.8171 279.207 22.8171C279.341 22.8171 279.542 22.8171 279.743 22.6831C283.026 21.3431 285.706 20.6061 287.783 20.6061C291.267 20.6061 291.669 21.4101 291.669 22.6161V24.5591C282.959 24.5591 273.847 26.8371 273.847 36.2841C273.847 42.8501 278.068 46.9371 285.371 46.9371C288.386 46.9371 290.798 45.8651 293.344 43.7881C294.349 46.1331 294.684 47.0041 295.622 47.0041C296.091 47.0041 296.493 46.9371 296.895 46.8031L304.064 44.7261C304.466 44.5921 304.533 44.4581 304.533 44.2571C304.533 44.0561 304.466 43.8551 304.399 43.5871ZM291.669 37.2891C290.329 38.6291 288.788 39.4331 287.448 39.4331C285.706 39.4331 284.232 38.0931 284.232 35.8151C284.232 33.2691 286.041 31.5941 291.669 31.5941V37.2891ZM326.404 45.9991C330.022 45.9991 335.315 45.7311 338.397 42.8501C340.608 40.7731 340.876 38.2941 340.876 36.0831C340.876 33.6711 339.871 29.6511 334.846 28.4451C339.335 27.0381 339.871 23.1521 339.871 21.2091C339.871 17.3231 337.995 15.2461 336.052 14.1741C333.841 12.9681 331.027 12.9011 326.337 12.9011H310.994C310.123 12.9011 310.056 13.1021 310.056 13.8391V45.0611C310.056 45.9321 310.257 45.9991 310.994 45.9991H326.404ZM321.58 20.0701H325.332C326.605 20.0701 328.414 20.8071 328.414 22.8171C328.414 25.6311 326.404 25.8321 325.131 25.8321H321.58V20.0701ZM321.58 32.5321H325.466C327.208 32.5321 329.218 33.3361 329.218 35.6811C329.218 37.2221 328.213 38.8301 325.6 38.8301H321.58V32.5321ZM358.626 33.1351H360.636C362.78 33.1351 363.651 34.2741 364.12 36.4181L364.723 39.5001C366.398 47.4731 373.031 47.1381 375.845 47.1381C377.52 47.1381 377.721 46.8701 377.855 46.1331L379.195 40.2371C379.262 40.0361 379.262 39.9021 379.262 39.7011C379.262 39.1651 379.061 38.6961 378.257 38.5621L377.453 38.4281C376.314 38.2271 375.242 38.6291 374.438 35.3461L373.969 33.5371C373.366 31.0581 371.892 29.3161 369.815 28.7131V28.5121C371.959 27.9091 372.964 26.4351 373.5 24.7601L374.304 22.3481C374.773 21.1421 375.108 20.1371 376.917 19.8021L378.123 19.6011C378.592 19.5341 378.86 19.1321 378.86 18.6631C378.86 18.5291 378.793 18.4621 378.793 18.3281L377.252 12.0301C377.051 11.2931 376.314 11.2261 375.577 11.2261C371.356 11.2261 366.666 12.7671 365.192 18.3281L364.656 20.6061C364.187 22.6831 363.316 24.2911 361.038 24.2911H358.626V12.6331C358.626 12.0301 358.492 11.8291 358.157 11.8291C357.956 11.8291 357.688 11.8961 357.286 11.9631L347.504 12.9681C346.834 13.0351 346.566 13.1021 346.566 13.8391V45.1281C346.566 45.9991 346.901 45.9991 347.571 45.9991H357.956C358.626 45.9991 358.626 45.9991 358.626 45.0611V33.1351ZM412.619 43.5871C411.949 41.9121 411.078 40.1031 411.078 35.4801V23.2861C411.078 15.3131 406.12 11.7621 397.544 11.7621C393.122 11.7621 388.499 12.4321 385.149 14.3081C384.546 14.6431 384.278 14.7771 384.278 15.1121C384.278 15.2461 384.345 15.3801 384.412 15.6481L386.824 22.2811C386.958 22.6831 387.159 22.8171 387.427 22.8171C387.561 22.8171 387.762 22.8171 387.963 22.6831C391.246 21.3431 393.926 20.6061 396.003 20.6061C399.487 20.6061 399.889 21.4101 399.889 22.6161V24.5591C391.179 24.5591 382.067 26.8371 382.067 36.2841C382.067 42.8501 386.288 46.9371 393.591 46.9371C396.606 46.9371 399.018 45.8651 401.564 43.7881C402.569 46.1331 402.904 47.0041 403.842 47.0041C404.311 47.0041 404.713 46.9371 405.115 46.8031L412.284 44.7261C412.686 44.5921 412.753 44.4581 412.753 44.2571C412.753 44.0561 412.686 43.8551 412.619 43.5871ZM399.889 37.2891C398.549 38.6291 397.008 39.4331 395.668 39.4331C393.926 39.4331 392.452 38.0931 392.452 35.8151C392.452 33.2691 394.261 31.5941 399.889 31.5941V37.2891ZM32.284 83.0551C32.418 82.6531 32.552 82.3851 32.552 82.1171C32.552 81.7821 32.351 81.5141 31.882 81.1791C28.867 78.9681 25.182 77.7621 21.363 77.7621C10.308 77.7621 4.211 85.0651 4.211 95.9861C4.211 106.371 9.638 113.138 20.291 113.138C23.172 113.138 32.083 111.262 32.083 108.314C32.083 108.046 31.949 107.778 31.815 107.51L29.269 102.552C29.001 102.016 28.733 101.748 28.398 101.748C28.13 101.748 27.795 101.882 27.326 102.15C25.584 103.155 23.775 104.16 21.564 104.16C18.817 104.16 16.137 102.15 16.137 95.6511C16.137 88.8841 18.884 86.7401 21.497 86.7401C23.842 86.7401 25.986 87.7451 28.331 89.2191C28.666 89.4201 28.934 89.5541 29.135 89.5541C29.403 89.5541 29.537 89.3531 29.738 88.9511L32.284 83.0551ZM53.1697 111.999C56.7877 111.999 62.0807 111.731 65.1627 108.85C67.3737 106.773 67.6417 104.294 67.6417 102.083C67.6417 99.6711 66.6367 95.6511 61.6117 94.4451C66.1007 93.0381 66.6367 89.1521 66.6367 87.2091C66.6367 83.3231 64.7607 81.2461 62.8177 80.1741C60.6067 78.9681 57.7927 78.9011 53.1027 78.9011H37.7597C36.8887 78.9011 36.8217 79.1021 36.8217 79.8391V111.061C36.8217 111.932 37.0227 111.999 37.7597 111.999H53.1697ZM48.3457 86.0701H52.0977C53.3707 86.0701 55.1797 86.8071 55.1797 88.8171C55.1797 91.6311 53.1697 91.8321 51.8967 91.8321H48.3457V86.0701ZM48.3457 98.5321H52.2317C53.9737 98.5321 55.9837 99.3361 55.9837 101.681C55.9837 103.222 54.9787 104.83 52.3657 104.83H48.3457V98.5321ZM103.749 96.9911C103.749 84.6631 99.2604 77.7621 88.6744 77.7621C78.3564 77.7621 72.1924 85.4001 72.1924 95.7181C72.1924 106.572 77.8874 113.138 89.0094 113.138C92.6944 113.138 97.5854 112.401 102.141 109.319C102.61 109.051 102.811 108.85 102.811 108.582C102.811 108.448 102.744 108.247 102.61 108.046L99.5954 102.418C99.3274 101.949 99.0594 101.681 98.7244 101.681C98.5234 101.681 98.3224 101.748 97.9874 101.949C95.4414 103.356 93.3644 104.428 89.3444 104.428C85.9944 104.428 84.1184 102.619 83.7164 97.9291H102.677C103.347 97.9291 103.749 97.8621 103.749 96.9911ZM92.4264 90.7601H83.7164C84.3864 86.5391 85.4584 85.1321 88.2724 85.1321C90.8854 85.1321 92.1584 86.4051 92.4264 90.7601ZM136.658 99.1351H137.73C140.142 99.1351 141.013 100.609 141.549 102.82L142.152 105.701C143.291 110.592 146.708 113.138 153.006 113.138C153.944 113.138 154.614 113.071 154.815 112.133L156.155 105.701C156.155 105.165 155.82 104.696 155.217 104.562L154.279 104.428C152.135 104.093 151.934 102.887 151.532 101.681L150.996 99.8721C150.46 98.1301 149.321 95.4501 146.239 94.7131V94.5121C148.852 93.9761 149.857 92.1001 150.192 90.6261L150.594 89.0181C151.197 86.6731 152.202 86.5391 153.676 86.2711L154.48 86.1371C154.949 86.0701 155.351 85.7351 155.351 85.1991C155.351 85.0651 155.351 84.9311 155.284 84.7971L153.676 78.5661C153.475 77.8291 152.738 77.7621 151.934 77.7621C145.904 77.7621 143.224 81.0451 142.42 84.7301L141.951 86.8741C141.482 89.3531 140.276 90.2911 137.931 90.2911H136.658V78.3651C136.658 77.9631 136.457 77.8961 136.256 77.8961L126.876 78.9681C126.34 79.0351 125.938 79.0351 125.938 79.7721V90.2911H124.665C122.32 90.2911 121.114 89.3531 120.645 86.8741L120.176 84.7301C119.372 81.0451 116.692 77.7621 110.662 77.7621C109.858 77.7621 109.121 77.8291 108.92 78.5661L107.312 84.7971C107.245 84.9311 107.245 85.0651 107.245 85.1991C107.245 85.7351 107.647 86.0701 108.116 86.1371L108.92 86.2711C110.394 86.5391 111.399 86.6731 112.002 89.0181L112.404 90.6261C112.739 92.1001 113.744 93.9761 116.357 94.5121V94.7131C113.275 95.4501 112.136 98.1301 111.6 99.8721L111.064 101.681C110.662 102.887 110.461 104.093 108.317 104.428L107.379 104.562C106.776 104.696 106.441 105.165 106.441 105.701L107.781 112.133C107.982 113.071 108.652 113.138 109.59 113.138C115.888 113.138 119.305 110.592 120.444 105.701L121.047 102.82C121.583 100.609 122.454 99.1351 124.866 99.1351H125.938V111.128C125.938 111.53 126.005 111.999 126.541 111.999H136.189C136.524 111.999 136.658 111.932 136.658 111.463V99.1351ZM160.157 111.061C160.157 111.932 160.358 111.999 161.095 111.999H171.346C172.016 111.999 172.217 111.664 172.418 111.329L177.912 101.145C180.123 97.1251 181.061 94.9811 181.731 93.2391H181.999C181.865 94.6461 181.664 97.7951 181.664 99.4701V111.128C181.664 111.932 181.798 111.999 182.267 111.999H192.116C192.384 111.999 192.652 111.999 192.652 111.597V78.5661C192.652 77.8961 192.518 77.7621 192.116 77.7621L182.267 78.9011C181.195 79.0351 180.994 79.2361 180.391 80.2411L174.562 90.4921C173.289 92.6361 172.15 94.7801 171.078 97.5941H170.877C171.011 95.6511 171.145 93.1051 171.145 91.1621V78.2311C171.145 77.8291 170.944 77.7621 170.743 77.7621L161.095 78.8341C160.559 78.9011 160.157 78.9681 160.157 79.5041V111.061ZM232.782 110.257L222.33 95.3161L232.179 82.3851C232.447 82.0501 232.581 81.7821 232.581 81.5141C232.581 81.1791 232.313 80.9111 231.643 80.7771L221.191 78.6331C220.856 78.5661 220.588 78.4991 220.387 78.4991C220.052 78.4991 219.918 78.6331 219.65 79.1021L216.099 84.9311C215.563 85.7351 215.161 86.8071 214.826 87.5441C214.558 86.9411 214.089 85.6681 213.754 84.9311L210.739 79.1021C210.471 78.7001 210.337 78.4991 209.935 78.4991C209.801 78.4991 209.533 78.4991 209.265 78.5661L198.679 80.4421C198.009 80.5761 197.741 80.7771 197.741 81.1121C197.741 81.3801 197.875 81.6481 198.143 82.0501L207.523 95.3161L197.138 109.386C196.87 109.721 196.736 109.989 196.736 110.257C196.736 110.592 197.071 110.86 197.674 110.994L208.26 112.937C208.595 113.004 208.729 113.004 208.93 113.004C209.265 113.004 209.399 112.87 209.667 112.468L213.687 105.567C214.29 104.495 214.558 103.423 214.893 102.686C215.228 103.423 215.496 104.361 216.166 105.567L219.985 112.468C220.186 112.937 220.387 113.071 220.789 113.071C220.99 113.071 221.191 113.004 221.459 113.004L232.246 111.865C232.849 111.798 233.117 111.53 233.117 111.128C233.117 110.86 232.983 110.592 232.782 110.257ZM252.609 111.061C252.609 111.932 252.81 111.999 253.547 111.999H263.798C264.468 111.999 264.669 111.664 264.87 111.329L270.364 101.145C272.575 97.1251 273.513 94.9811 274.183 93.2391H274.451C274.317 94.6461 274.116 97.7951 274.116 99.4701V111.128C274.116 111.932 274.25 111.999 274.719 111.999H284.568C284.836 111.999 285.104 111.999 285.104 111.597V78.5661C285.104 77.8961 284.97 77.7621 284.568 77.7621L274.719 78.9011C273.647 79.0351 273.446 79.2361 272.843 80.2411L267.014 90.4921C265.741 92.6361 264.602 94.7801 263.53 97.5941H263.329C263.463 95.6511 263.597 93.1051 263.597 91.1621V78.2311C263.597 77.8291 263.396 77.7621 263.195 77.7621L253.547 78.8341C253.011 78.9011 252.609 78.9681 252.609 79.5041V111.061ZM322.487 79.8391C322.487 79.1021 322.286 78.9011 321.549 78.9011H296.692C295.821 78.9011 295.754 79.1021 295.754 79.8391V83.0551C295.754 89.2191 295.62 92.1671 295.285 94.4451C295.084 95.9191 294.347 99.6711 292.002 103.825H289.121C288.451 103.825 288.451 104.227 288.451 104.763V120.441C288.451 121.178 288.652 121.379 289.389 121.379H297.563C298.434 121.379 298.501 121.178 298.501 120.441V111.999H316.256V120.441C316.256 121.178 316.457 121.379 317.194 121.379H325.368C326.239 121.379 326.306 121.178 326.306 120.441V104.629C326.306 104.093 326.172 103.825 325.636 103.825H322.487V79.8391ZM311.365 103.825H302.856C304.598 100.14 305.67 94.9141 305.67 89.2861V87.0751H311.365V103.825ZM360.757 96.9911C360.757 84.6631 356.268 77.7621 345.682 77.7621C335.364 77.7621 329.2 85.4001 329.2 95.7181C329.2 106.572 334.895 113.138 346.017 113.138C349.702 113.138 354.593 112.401 359.149 109.319C359.618 109.051 359.819 108.85 359.819 108.582C359.819 108.448 359.752 108.247 359.618 108.046L356.603 102.418C356.335 101.949 356.067 101.681 355.732 101.681C355.531 101.681 355.33 101.748 354.995 101.949C352.449 103.356 350.372 104.428 346.352 104.428C343.002 104.428 341.126 102.619 340.724 97.9291H359.685C360.355 97.9291 360.757 97.8621 360.757 96.9911ZM349.434 90.7601H340.724C341.394 86.5391 342.466 85.1321 345.28 85.1321C347.893 85.1321 349.166 86.4051 349.434 90.7601ZM388.775 63.8931C388.574 63.8931 388.44 63.8261 388.239 63.8261C386.966 63.8261 387.77 68.7171 383.281 68.7171C377.921 68.7171 379.462 63.8261 378.055 63.8261C377.854 63.8261 377.72 63.8931 377.519 63.8931L371.69 64.4961C371.556 64.4961 371.02 64.6971 371.02 65.6351C371.02 67.2431 372.092 75.0821 383.013 75.0821C389.847 75.0821 392.795 71.7321 394.001 69.7891C395.073 68.1141 395.274 66.6401 395.274 65.6351C395.274 64.6971 394.805 64.4961 394.604 64.4961L388.775 63.8931ZM366.129 111.061C366.129 111.932 366.33 111.999 367.067 111.999H377.318C377.988 111.999 378.189 111.664 378.39 111.329L383.884 101.145C386.095 97.1251 387.033 94.9811 387.703 93.2391H387.971C387.837 94.6461 387.636 97.7951 387.636 99.4701V111.128C387.636 111.932 387.77 111.999 388.239 111.999H398.088C398.356 111.999 398.624 111.999 398.624 111.597V78.5661C398.624 77.8961 398.49 77.7621 398.088 77.7621L388.239 78.9011C387.167 79.0351 386.966 79.2361 386.363 80.2411L380.534 90.4921C379.261 92.6361 378.122 94.7801 377.05 97.5941H376.849C376.983 95.6511 377.117 93.1051 377.117 91.1621V78.2311C377.117 77.8291 376.916 77.7621 376.715 77.7621L367.067 78.8341C366.531 78.9011 366.129 78.9681 366.129 79.5041V111.061Z" fill="white"/>
<path d="M33.021 161.584C33.021 150.663 27.862 144.298 19.219 144.298C10.375 144.298 5.082 150.864 5.082 161.718C5.082 172.639 10.174 179.004 18.884 179.004C27.661 179.004 33.021 172.371 33.021 161.584ZM25.785 161.45C25.785 169.758 23.708 173.51 19.085 173.51C14.462 173.51 12.318 169.758 12.318 161.45C12.318 153.477 14.529 149.792 19.085 149.792C23.641 149.792 25.785 153.477 25.785 161.45ZM52.3201 150.797H60.1591C60.7621 150.797 61.0301 150.462 61.0971 150.194L62.1021 146.308C62.1021 146.174 62.1691 146.107 62.1691 145.973C62.1691 145.638 61.9681 145.303 61.5661 145.303H37.3791C37.1111 145.303 36.7091 145.37 36.7091 145.973V150.127C36.7091 150.73 37.1111 150.797 37.3791 150.797H45.6201V177.128C45.6201 177.53 45.7541 177.999 46.3571 177.999H51.5831C52.1861 177.999 52.3201 177.53 52.3201 177.128V150.797ZM114.541 176.324L101.208 132.975C100.94 132.104 100.94 132.037 100.002 132.037H94.5082C93.6372 132.037 93.5702 132.104 93.3022 132.975L79.9692 176.324C79.8352 176.659 79.7682 177.061 79.7682 177.329C79.7682 177.731 80.0362 177.999 80.9072 177.999H86.2672C87.0712 177.999 87.3392 177.865 87.5402 177.061L90.8232 165.068H103.285L106.568 177.061C106.769 177.865 107.037 177.999 107.841 177.999H113.603C114.474 177.999 114.742 177.731 114.742 177.262C114.742 176.994 114.675 176.659 114.541 176.324ZM101.744 159.574H91.8952L95.3792 146.107C95.9152 143.896 96.3842 141.551 96.8532 138.737C97.3892 141.618 97.8582 143.963 98.3942 146.107L101.744 159.574ZM134.81 176.525L133.671 172.639C133.537 172.304 133.336 172.17 133.135 172.17C132.934 172.17 132.8 172.237 132.532 172.371C131.661 172.773 130.857 172.907 130.12 172.907C128.579 172.907 127.842 172.17 127.842 170.026V130.429C127.842 129.759 127.775 129.424 127.306 129.424C127.172 129.424 127.038 129.424 126.837 129.491L121.812 130.563C121.276 130.697 120.941 131.099 120.941 131.635V164.465C120.941 172.572 120.271 178.87 128.646 178.87C130.522 178.87 135.011 178.133 135.011 177.195C135.011 176.994 134.877 176.793 134.81 176.525ZM166.258 160.981C166.258 149.993 162.439 144.298 155.203 144.298C151.92 144.298 149.508 145.37 146.225 148.05C145.756 146.442 144.751 144.231 144.014 144.231C143.88 144.231 143.679 144.298 143.478 144.432L139.123 146.643C138.855 146.777 138.721 146.978 138.721 147.246C138.721 147.581 138.989 148.05 139.257 148.72C140.195 150.596 140.396 151.802 140.396 154.616V191.198C140.396 192.002 140.53 192.203 140.932 192.203C141.066 192.203 141.267 192.203 141.468 192.136L146.359 190.93C147.096 190.729 147.163 190.595 147.163 189.925V176.659C149.91 178.401 151.853 179.004 154.533 179.004C162.104 179.004 166.258 172.639 166.258 160.981ZM159.29 161.182C159.29 170.16 157.749 173.376 153.193 173.376C151.183 173.376 149.642 172.84 147.163 171.366V152.807C149.977 150.663 151.652 149.926 153.662 149.926C157.682 149.926 159.29 153.276 159.29 161.182ZM199.052 160.914C199.052 150.194 194.563 144.298 186.322 144.298C177.88 144.298 172.386 151.199 172.386 161.785C172.386 172.639 177.679 179.004 186.791 179.004C190.208 179.004 198.248 177.195 198.248 175.252C198.248 175.051 198.181 174.85 198.047 174.582L196.506 171.232C196.372 170.897 196.171 170.696 195.97 170.696C195.836 170.696 195.769 170.763 195.635 170.83C193.558 171.768 191.414 173.242 187.461 173.242C182.302 173.242 179.622 169.892 179.354 163.393H197.98C198.985 163.393 199.052 162.656 199.052 161.383V160.914ZM191.883 158.234H179.421C179.89 152.204 181.9 149.39 185.92 149.39C189.873 149.39 191.749 152.271 191.883 158.234ZM232.516 177.061V154.616C232.516 147.112 229.903 144.365 223.672 144.365C219.518 144.365 217.039 146.308 213.756 148.854C212.751 145.772 212.081 144.298 211.411 144.298C211.277 144.298 211.143 144.298 211.009 144.365L206.587 146.375C206.252 146.576 206.118 146.71 206.118 146.911C206.118 147.112 206.185 147.313 206.319 147.581C207.257 149.591 207.592 151.4 207.592 154.214V177.061C207.592 177.865 207.726 177.999 208.53 177.999H213.354C214.158 177.999 214.292 177.865 214.292 177.061V153.41C217.106 150.864 219.049 149.926 221.595 149.926C224.543 149.926 225.816 151.601 225.816 155.554V177.061C225.816 177.865 225.816 177.999 226.687 177.999H231.511C232.315 177.999 232.516 177.865 232.516 177.061ZM286.346 174.649V155.487C286.346 154.482 286.078 154.281 285.14 154.281H274.286C273.281 154.281 273.147 154.482 273.147 155.487V159.105C273.147 160.11 273.281 160.244 274.286 160.244H279.445V171.835C277.703 172.639 276.028 173.041 274.286 173.041C264.772 173.041 264.303 162.053 264.303 154.482C264.303 142.422 267.318 136.861 273.951 136.861C276.698 136.861 278.44 137.464 282.192 139.675C282.594 139.876 283.13 140.144 283.532 139.407L285.274 135.99C285.609 135.32 285.676 134.851 285.006 134.382C282.058 132.238 277.904 130.965 273.817 130.965C262.561 130.965 256.665 139.34 256.665 155.353C256.665 170.964 262.427 179.004 273.683 179.004C277.971 179.004 282.326 177.932 285.274 176.123C286.145 175.587 286.346 175.319 286.346 174.649ZM321.435 161.584C321.435 150.663 316.276 144.298 307.633 144.298C298.789 144.298 293.496 150.864 293.496 161.718C293.496 172.639 298.588 179.004 307.298 179.004C316.075 179.004 321.435 172.371 321.435 161.584ZM314.199 161.45C314.199 169.758 312.122 173.51 307.499 173.51C302.876 173.51 300.732 169.758 300.732 161.45C300.732 153.477 302.943 149.792 307.499 149.792C312.055 149.792 314.199 153.477 314.199 161.45ZM343.466 176.525L342.327 172.639C342.193 172.304 341.992 172.17 341.791 172.17C341.59 172.17 341.456 172.237 341.188 172.371C340.317 172.773 339.513 172.907 338.776 172.907C337.235 172.907 336.498 172.17 336.498 170.026V130.429C336.498 129.759 336.431 129.424 335.962 129.424C335.828 129.424 335.694 129.424 335.493 129.491L330.468 130.563C329.932 130.697 329.597 131.099 329.597 131.635V164.465C329.597 172.572 328.927 178.87 337.302 178.87C339.178 178.87 343.667 178.133 343.667 177.195C343.667 176.994 343.533 176.793 343.466 176.525ZM373.305 176.592C373.64 176.458 373.707 176.324 373.707 176.123C373.707 175.788 373.372 175.453 373.171 175.051C372.099 173.175 371.965 171.902 371.965 168.552V130.429C371.965 129.692 371.831 129.424 371.429 129.424C371.228 129.424 371.027 129.491 370.759 129.558L366.002 130.563C365.399 130.697 365.265 130.965 365.265 131.635V146.375C362.652 144.901 360.642 144.298 358.297 144.298C350.86 144.298 346.036 150.596 346.036 162.12C346.036 172.706 350.056 179.004 356.756 179.004C359.972 179.004 362.719 177.932 366.404 175.051C366.873 176.994 367.476 178.736 368.481 178.736C368.682 178.736 368.883 178.736 369.084 178.602L373.305 176.592ZM365.265 170.294C363.054 172.438 360.977 173.376 358.699 173.376C354.612 173.376 353.004 169.959 353.004 161.383C353.004 153.142 354.813 149.926 359.436 149.926C361.379 149.926 363.054 150.395 365.265 151.601V170.294ZM393.313 132.841C393.38 131.903 393.246 131.635 392.174 131.635H386.077C385.005 131.635 384.938 131.903 385.005 132.841L386.546 159.507C386.613 160.445 386.747 160.646 387.685 160.646H390.633C391.638 160.646 391.772 160.445 391.839 159.507L393.313 132.841ZM394.452 174.113C394.452 171.299 392.174 168.954 389.293 168.954C386.412 168.954 384.134 171.299 384.134 174.113C384.134 176.994 386.412 179.406 389.293 179.406C392.174 179.406 394.452 176.994 394.452 174.113Z" fill="url(#paint0_linear)"/>
</g>
<defs>
<filter id="filter0_d" x="0.210999" y="0.0370789" width="412.542" height="196.166" filterUnits="userSpaceOnUse" color-interpolation-filters="sRGB">
<feFlood flood-opacity="0" result="BackgroundImageFix"/>
<feColorMatrix in="SourceAlpha" type="matrix" values="0 0 0 0 0 0 0 0 0 0 0 0 0 0 0 0 0 0 127 0"/>
<feOffset dx="-2" dy="2"/>
<feGaussianBlur stdDeviation="1"/>
<feColorMatrix type="matrix" values="0 0 0 0 0.407789 0 0 0 0 0.153002 0 0 0 0 0.000130266 0 0 0 0.75 0"/>
<feBlend mode="normal" in2="BackgroundImageFix" result="effect1_dropShadow"/>
<feBlend mode="normal" in="SourceGraphic" in2="effect1_dropShadow" result="shape"/>
</filter>
<linearGradient id="paint0_linear" x1="391.16" y1="56.8991" x2="163.055" y2="360.977" gradientUnits="userSpaceOnUse">
<stop offset="0.34855" stop-color="white"/>
<stop offset="0.806911" stop-color="#FFE686"/>
<stop offset="1" stop-color="#F7B545"/>
</linearGradient>
</defs>
</svg>
