<svg width="252" height="126" viewBox="0 0 252 126" fill="none" xmlns="http://www.w3.org/2000/svg">
<g filter="url(#filter0_d)">
<path d="M54.0172 28.118V1.028C54.0172 0.313999 53.9332 0.187998 53.1352 0.187998H46.7092C45.9112 0.187998 45.8692 0.313999 45.8692 1.028V10.94H40.4092V1.028C40.4092 0.313999 40.2412 0.187998 39.5272 0.187998H33.1012C32.3032 0.187998 32.2612 0.313999 32.2612 1.028V28.118C32.2612 28.916 32.3032 29 33.1012 29H39.5272C40.2412 29 40.4092 28.916 40.4092 28.118V17.576H45.8692V28.118C45.8692 28.916 45.9112 29 46.7092 29H53.1352C53.9332 29 54.0172 28.916 54.0172 28.118ZM76.8222 27.488C76.4022 26.438 75.8562 25.304 75.8562 22.406V14.762C75.8562 9.764 72.7482 7.538 67.3722 7.538C64.6002 7.538 61.7022 7.958 59.6022 9.134C59.2242 9.344 59.0562 9.428 59.0562 9.638C59.0562 9.722 59.0982 9.806 59.1402 9.974L60.6522 14.132C60.7362 14.384 60.8622 14.468 61.0302 14.468C61.1142 14.468 61.2402 14.468 61.3662 14.384C63.4242 13.544 65.1042 13.082 66.4062 13.082C68.5902 13.082 68.8422 13.586 68.8422 14.342V15.56C63.3822 15.56 57.6702 16.988 57.6702 22.91C57.6702 27.026 60.3162 29.588 64.8942 29.588C66.7842 29.588 68.2962 28.916 69.8922 27.614C70.5222 29.084 70.7322 29.63 71.3202 29.63C71.6142 29.63 71.8662 29.588 72.1182 29.504L76.6122 28.202C76.8642 28.118 76.9062 28.034 76.9062 27.908C76.9062 27.782 76.8642 27.656 76.8222 27.488ZM68.8422 23.54C68.0022 24.38 67.0362 24.884 66.1962 24.884C65.1042 24.884 64.1802 24.044 64.1802 22.616C64.1802 21.02 65.3142 19.97 68.8422 19.97V23.54ZM90.1713 28.454C90.1713 28.958 90.3393 29 90.5493 29H97.1013C97.6473 29 97.7733 29 97.7733 28.832C97.7733 28.748 97.7313 28.58 97.7313 28.412V14.216H101.721V28.454C101.721 28.958 101.889 29 102.099 29H108.651C109.197 29 109.323 28.958 109.323 28.79C109.323 28.706 109.281 28.58 109.281 28.412V8.798C109.281 8.42 109.113 8.252 108.735 8.252H90.7593C90.2973 8.252 90.1713 8.378 90.1713 8.84V28.454ZM133.334 18.668C133.334 12.032 129.764 7.538 123.128 7.538C116.492 7.538 112.754 12.032 112.754 18.584C112.754 25.304 116.366 29.714 123.086 29.714C129.596 29.714 133.334 25.136 133.334 18.668ZM125.858 18.626C125.858 23.288 124.808 24.59 123.044 24.59C121.28 24.59 120.23 23.33 120.23 18.668C120.23 13.922 121.28 12.662 123.044 12.662C124.808 12.662 125.858 13.964 125.858 18.626ZM136.806 28.412C136.806 28.958 136.932 29 137.394 29H143.82C144.24 29 144.366 28.79 144.492 28.58L147.936 22.196C149.322 19.676 149.91 18.332 150.33 17.24H150.498C150.414 18.122 150.288 20.096 150.288 21.146V28.454C150.288 28.958 150.372 29 150.666 29H156.84C157.008 29 157.176 29 157.176 28.748V8.042C157.176 7.622 157.092 7.538 156.84 7.538L150.666 8.252C149.994 8.336 149.868 8.462 149.49 9.092L145.836 15.518C145.038 16.862 144.324 18.206 143.652 19.97H143.526C143.61 18.752 143.694 17.156 143.694 15.938V7.832C143.694 7.58 143.568 7.538 143.442 7.538L137.394 8.21C137.058 8.252 136.806 8.294 136.806 8.63V28.412ZM178.258 10.856C178.342 10.604 178.426 10.436 178.426 10.268C178.426 10.058 178.3 9.89 178.006 9.68C176.116 8.294 173.806 7.538 171.412 7.538C164.482 7.538 160.66 12.116 160.66 18.962C160.66 25.472 164.062 29.714 170.74 29.714C172.546 29.714 178.132 28.538 178.132 26.69C178.132 26.522 178.048 26.354 177.964 26.186L176.368 23.078C176.2 22.742 176.032 22.574 175.822 22.574C175.654 22.574 175.444 22.658 175.15 22.826C174.058 23.456 172.924 24.086 171.538 24.086C169.816 24.086 168.136 22.826 168.136 18.752C168.136 14.51 169.858 13.166 171.496 13.166C172.966 13.166 174.31 13.796 175.78 14.72C175.99 14.846 176.158 14.93 176.284 14.93C176.452 14.93 176.536 14.804 176.662 14.552L178.258 10.856ZM188.13 20.936H189.39C190.734 20.936 191.28 21.65 191.574 22.994L191.952 24.926C193.002 29.924 197.16 29.714 198.924 29.714C199.974 29.714 200.1 29.546 200.184 29.084L201.024 25.388C201.066 25.262 201.066 25.178 201.066 25.052C201.066 24.716 200.94 24.422 200.436 24.338L199.932 24.254C199.218 24.128 198.546 24.38 198.042 22.322L197.748 21.188C197.37 19.634 196.446 18.542 195.144 18.164V18.038C196.488 17.66 197.118 16.736 197.454 15.686L197.958 14.174C198.252 13.418 198.462 12.788 199.596 12.578L200.352 12.452C200.646 12.41 200.814 12.158 200.814 11.864C200.814 11.78 200.772 11.738 200.772 11.654L199.806 7.706C199.68 7.244 199.218 7.202 198.756 7.202C196.11 7.202 193.17 8.168 192.246 11.654L191.91 13.082C191.616 14.384 191.07 15.392 189.642 15.392H188.13V8.084C188.13 7.706 188.046 7.58 187.836 7.58C187.71 7.58 187.542 7.622 187.29 7.664L181.158 8.294C180.738 8.336 180.57 8.378 180.57 8.84V28.454C180.57 29 180.78 29 181.2 29H187.71C188.13 29 188.13 29 188.13 28.412V20.936ZM203.538 28.412C203.538 28.958 203.664 29 204.126 29H210.552C210.972 29 211.098 28.79 211.224 28.58L214.668 22.196C216.054 19.676 216.642 18.332 217.062 17.24H217.23C217.146 18.122 217.02 20.096 217.02 21.146V28.454C217.02 28.958 217.104 29 217.398 29H223.572C223.74 29 223.908 29 223.908 28.748V8.042C223.908 7.622 223.824 7.538 223.572 7.538L217.398 8.252C216.726 8.336 216.6 8.462 216.222 9.092L212.568 15.518C211.77 16.862 211.056 18.206 210.384 19.97H210.258C210.342 18.752 210.426 17.156 210.426 15.938V7.832C210.426 7.58 210.3 7.538 210.174 7.538L204.126 8.21C203.79 8.252 203.538 8.294 203.538 8.63V28.412ZM21.6197 52.856C21.7037 52.604 21.7877 52.436 21.7877 52.268C21.7877 52.058 21.6617 51.89 21.3677 51.68C19.4777 50.294 17.1677 49.538 14.7737 49.538C7.84374 49.538 4.02174 54.116 4.02174 60.962C4.02174 67.472 7.42374 71.714 14.1017 71.714C15.9077 71.714 21.4937 70.538 21.4937 68.69C21.4937 68.522 21.4097 68.354 21.3257 68.186L19.7297 65.078C19.5617 64.742 19.3937 64.574 19.1837 64.574C19.0157 64.574 18.8057 64.658 18.5117 64.826C17.4197 65.456 16.2857 66.086 14.8997 66.086C13.1777 66.086 11.4977 64.826 11.4977 60.752C11.4977 56.51 13.2197 55.166 14.8577 55.166C16.3277 55.166 17.6717 55.796 19.1417 56.72C19.3517 56.846 19.5197 56.93 19.6457 56.93C19.8137 56.93 19.8977 56.804 20.0237 56.552L21.6197 52.856ZM34.7123 71C36.9803 71 40.2983 70.832 42.2303 69.026C43.6163 67.724 43.7843 66.17 43.7843 64.784C43.7843 63.272 43.1543 60.752 40.0043 59.996C42.8183 59.114 43.1543 56.678 43.1543 55.46C43.1543 53.024 41.9783 51.722 40.7603 51.05C39.3743 50.294 37.6103 50.252 34.6703 50.252H25.0523C24.5063 50.252 24.4643 50.378 24.4643 50.84V70.412C24.4643 70.958 24.5903 71 25.0523 71H34.7123ZM31.6883 54.746H34.0403C34.8383 54.746 35.9723 55.208 35.9723 56.468C35.9723 58.232 34.7123 58.358 33.9143 58.358H31.6883V54.746ZM31.6883 62.558H34.1243C35.2163 62.558 36.4763 63.062 36.4763 64.532C36.4763 65.498 35.8463 66.506 34.2083 66.506H31.6883V62.558ZM66.419 61.592C66.419 53.864 63.605 49.538 56.969 49.538C50.501 49.538 46.637 54.326 46.637 60.794C46.637 67.598 50.207 71.714 57.179 71.714C59.489 71.714 62.555 71.252 65.411 69.32C65.705 69.152 65.831 69.026 65.831 68.858C65.831 68.774 65.789 68.648 65.705 68.522L63.815 64.994C63.647 64.7 63.479 64.532 63.269 64.532C63.143 64.532 63.017 64.574 62.807 64.7C61.211 65.582 59.909 66.254 57.389 66.254C55.289 66.254 54.113 65.12 53.861 62.18H65.747C66.167 62.18 66.419 62.138 66.419 61.592ZM59.321 57.686H53.861C54.281 55.04 54.953 54.158 56.717 54.158C58.355 54.158 59.153 54.956 59.321 57.686ZM87.0485 62.936H87.7205C89.2325 62.936 89.7785 63.86 90.1145 65.246L90.4925 67.052C91.2065 70.118 93.3485 71.714 97.2965 71.714C97.8845 71.714 98.3045 71.672 98.4305 71.084L99.2705 67.052C99.2705 66.716 99.0605 66.422 98.6825 66.338L98.0945 66.254C96.7505 66.044 96.6245 65.288 96.3725 64.532L96.0365 63.398C95.7005 62.306 94.9865 60.626 93.0545 60.164V60.038C94.6925 59.702 95.3225 58.526 95.5325 57.602L95.7845 56.594C96.1625 55.124 96.7925 55.04 97.7165 54.872L98.2205 54.788C98.5145 54.746 98.7665 54.536 98.7665 54.2C98.7665 54.116 98.7665 54.032 98.7245 53.948L97.7165 50.042C97.5905 49.58 97.1285 49.538 96.6245 49.538C92.8445 49.538 91.1645 51.596 90.6605 53.906L90.3665 55.25C90.0725 56.804 89.3165 57.392 87.8465 57.392H87.0485V49.916C87.0485 49.664 86.9225 49.622 86.7965 49.622L80.9165 50.294C80.5805 50.336 80.3285 50.336 80.3285 50.798V57.392H79.5305C78.0605 57.392 77.3045 56.804 77.0105 55.25L76.7165 53.906C76.2125 51.596 74.5325 49.538 70.7525 49.538C70.2485 49.538 69.7865 49.58 69.6605 50.042L68.6525 53.948C68.6105 54.032 68.6105 54.116 68.6105 54.2C68.6105 54.536 68.8625 54.746 69.1565 54.788L69.6605 54.872C70.5845 55.04 71.2145 55.124 71.5925 56.594L71.8445 57.602C72.0545 58.526 72.6845 59.702 74.3225 60.038V60.164C72.3905 60.626 71.6765 62.306 71.3405 63.398L71.0045 64.532C70.7525 65.288 70.6265 66.044 69.2825 66.254L68.6945 66.338C68.3165 66.422 68.1065 66.716 68.1065 67.052L68.9465 71.084C69.0725 71.672 69.4925 71.714 70.0805 71.714C74.0285 71.714 76.1705 70.118 76.8845 67.052L77.2625 65.246C77.5985 63.86 78.1445 62.936 79.6565 62.936H80.3285V70.454C80.3285 70.706 80.3705 71 80.7065 71H86.7545C86.9645 71 87.0485 70.958 87.0485 70.664V62.936ZM101.779 70.412C101.779 70.958 101.905 71 102.367 71H108.793C109.213 71 109.339 70.79 109.465 70.58L112.909 64.196C114.295 61.676 114.883 60.332 115.303 59.24H115.471C115.387 60.122 115.261 62.096 115.261 63.146V70.454C115.261 70.958 115.345 71 115.639 71H121.813C121.981 71 122.149 71 122.149 70.748V50.042C122.149 49.622 122.065 49.538 121.813 49.538L115.639 50.252C114.967 50.336 114.841 50.462 114.463 51.092L110.809 57.518C110.011 58.862 109.297 60.206 108.625 61.97H108.499C108.583 60.752 108.667 59.156 108.667 57.938V49.832C108.667 49.58 108.541 49.538 108.415 49.538L102.367 50.21C102.031 50.252 101.779 50.294 101.779 50.63V70.412ZM147.305 69.908L140.753 60.542L146.927 52.436C147.095 52.226 147.179 52.058 147.179 51.89C147.179 51.68 147.011 51.512 146.591 51.428L140.039 50.084C139.829 50.042 139.661 50 139.535 50C139.325 50 139.241 50.084 139.073 50.378L136.847 54.032C136.511 54.536 136.259 55.208 136.049 55.67C135.881 55.292 135.587 54.494 135.377 54.032L133.487 50.378C133.319 50.126 133.235 50 132.983 50C132.899 50 132.731 50 132.563 50.042L125.927 51.218C125.507 51.302 125.339 51.428 125.339 51.638C125.339 51.806 125.423 51.974 125.591 52.226L131.471 60.542L124.961 69.362C124.793 69.572 124.709 69.74 124.709 69.908C124.709 70.118 124.919 70.286 125.297 70.37L131.933 71.588C132.143 71.63 132.227 71.63 132.353 71.63C132.563 71.63 132.647 71.546 132.815 71.294L135.335 66.968C135.713 66.296 135.881 65.624 136.091 65.162C136.301 65.624 136.469 66.212 136.889 66.968L139.283 71.294C139.409 71.588 139.535 71.672 139.787 71.672C139.913 71.672 140.039 71.63 140.207 71.63L146.969 70.916C147.347 70.874 147.515 70.706 147.515 70.454C147.515 70.286 147.431 70.118 147.305 69.908ZM159.734 70.412C159.734 70.958 159.86 71 160.322 71H166.748C167.168 71 167.294 70.79 167.42 70.58L170.864 64.196C172.25 61.676 172.838 60.332 173.258 59.24H173.426C173.342 60.122 173.216 62.096 173.216 63.146V70.454C173.216 70.958 173.3 71 173.594 71H179.768C179.936 71 180.104 71 180.104 70.748V50.042C180.104 49.622 180.02 49.538 179.768 49.538L173.594 50.252C172.922 50.336 172.796 50.462 172.418 51.092L168.764 57.518C167.966 58.862 167.252 60.206 166.58 61.97H166.454C166.538 60.752 166.622 59.156 166.622 57.938V49.832C166.622 49.58 166.496 49.538 166.37 49.538L160.322 50.21C159.986 50.252 159.734 50.294 159.734 50.63V70.412ZM203.538 50.84C203.538 50.378 203.412 50.252 202.95 50.252H187.368C186.822 50.252 186.78 50.378 186.78 50.84V52.856C186.78 56.72 186.696 58.568 186.486 59.996C186.36 60.92 185.898 63.272 184.428 65.876H182.622C182.202 65.876 182.202 66.128 182.202 66.464V76.292C182.202 76.754 182.328 76.88 182.79 76.88H187.914C188.46 76.88 188.502 76.754 188.502 76.292V71H199.632V76.292C199.632 76.754 199.758 76.88 200.22 76.88H205.344C205.89 76.88 205.932 76.754 205.932 76.292V66.38C205.932 66.044 205.848 65.876 205.512 65.876H203.538V50.84ZM196.566 65.876H191.232C192.324 63.566 192.996 60.29 192.996 56.762V55.376H196.566V65.876ZM227.528 61.592C227.528 53.864 224.714 49.538 218.078 49.538C211.61 49.538 207.746 54.326 207.746 60.794C207.746 67.598 211.316 71.714 218.288 71.714C220.598 71.714 223.664 71.252 226.52 69.32C226.814 69.152 226.94 69.026 226.94 68.858C226.94 68.774 226.898 68.648 226.814 68.522L224.924 64.994C224.756 64.7 224.588 64.532 224.378 64.532C224.252 64.532 224.126 64.574 223.916 64.7C222.32 65.582 221.018 66.254 218.498 66.254C216.398 66.254 215.222 65.12 214.97 62.18H226.856C227.276 62.18 227.528 62.138 227.528 61.592ZM220.43 57.686H214.97C215.39 55.04 216.062 54.158 217.826 54.158C219.464 54.158 220.262 54.956 220.43 57.686ZM245.092 40.844C244.966 40.844 244.882 40.802 244.756 40.802C243.958 40.802 244.462 43.868 241.648 43.868C238.288 43.868 239.254 40.802 238.372 40.802C238.246 40.802 238.162 40.844 238.036 40.844L234.382 41.222C234.298 41.222 233.962 41.348 233.962 41.936C233.962 42.944 234.634 47.858 241.48 47.858C245.764 47.858 247.612 45.758 248.368 44.54C249.04 43.49 249.166 42.566 249.166 41.936C249.166 41.348 248.872 41.222 248.746 41.222L245.092 40.844ZM230.896 70.412C230.896 70.958 231.022 71 231.484 71H237.91C238.33 71 238.456 70.79 238.582 70.58L242.026 64.196C243.412 61.676 244 60.332 244.42 59.24H244.588C244.504 60.122 244.378 62.096 244.378 63.146V70.454C244.378 70.958 244.462 71 244.756 71H250.93C251.098 71 251.266 71 251.266 70.748V50.042C251.266 49.622 251.182 49.538 250.93 49.538L244.756 50.252C244.084 50.336 243.958 50.462 243.58 51.092L239.926 57.518C239.128 58.862 238.414 60.206 237.742 61.97H237.616C237.7 60.752 237.784 59.156 237.784 57.938V49.832C237.784 49.58 237.658 49.538 237.532 49.538L231.484 50.21C231.148 50.252 230.896 50.294 230.896 50.63V70.412Z" fill="white"/>
<path d="M21.6197 94.856C21.7037 94.604 21.7877 94.436 21.7877 94.268C21.7877 94.058 21.6617 93.89 21.3677 93.68C19.4777 92.294 17.1677 91.538 14.7737 91.538C7.84374 91.538 4.02174 96.116 4.02174 102.962C4.02174 109.472 7.42374 113.714 14.1017 113.714C15.9077 113.714 21.4937 112.538 21.4937 110.69C21.4937 110.522 21.4097 110.354 21.3257 110.186L19.7297 107.078C19.5617 106.742 19.3937 106.574 19.1837 106.574C19.0157 106.574 18.8057 106.658 18.5117 106.826C17.4197 107.456 16.2857 108.086 14.8997 108.086C13.1777 108.086 11.4977 106.826 11.4977 102.752C11.4977 98.51 13.2197 97.166 14.8577 97.166C16.3277 97.166 17.6717 97.796 19.1417 98.72C19.3517 98.846 19.5197 98.93 19.6457 98.93C19.8137 98.93 19.8977 98.804 20.0237 98.552L21.6197 94.856ZM57.5235 111.992L48.7035 84.902C48.4515 84.23 48.4095 84.188 47.7375 84.188H41.4795C40.7655 84.188 40.7235 84.272 40.5555 84.902L31.7775 111.992C31.6935 112.202 31.6095 112.412 31.6095 112.58C31.6095 112.832 31.8195 113 32.4915 113H39.0435C39.7155 113 39.7155 112.958 39.9255 112.286L41.6475 106.28H47.1495L48.7455 112.286C48.9135 112.958 48.9555 113 49.6695 113H56.7675C57.3975 113 57.6075 112.874 57.6075 112.496C57.6075 112.37 57.5655 112.202 57.5235 111.992ZM45.9735 100.61H42.5715L43.6635 95.696C43.9155 94.478 44.2095 92.252 44.3775 90.908C44.5455 92.168 44.9235 94.52 45.1335 95.696L45.9735 100.61ZM72.0339 111.488L70.9419 107.162C70.8999 106.952 70.7739 106.91 70.6059 106.91C70.3119 106.91 69.3459 107.372 68.3799 107.372C68.0439 107.372 67.7919 106.994 67.7919 106.448V83.39C67.7919 82.802 67.7499 82.634 67.4139 82.634C67.2879 82.634 67.1199 82.634 66.9099 82.676L60.6099 83.516C60.1059 83.6 60.0639 83.768 60.0639 84.44L60.1059 106.658C60.1059 109.136 60.4839 110.606 61.7019 111.95C62.8359 113.126 64.6419 113.714 66.5319 113.714C67.9179 113.714 72.0759 112.832 72.0759 111.782C72.0759 111.698 72.0759 111.614 72.0339 111.488ZM94.0441 102.584C94.0441 95.99 91.3561 91.538 85.5181 91.538C83.6701 91.538 82.2421 92 80.6461 93.344C80.3101 92.42 79.9741 91.538 79.5121 91.538C79.2181 91.538 78.9241 91.58 78.6301 91.664L73.7581 93.134C73.5481 93.176 73.4221 93.26 73.4221 93.428C73.4221 94.142 74.2621 95.99 74.2621 98.342V121.106C74.2621 121.652 74.2621 121.82 74.5981 121.82L81.3601 121.022C81.7381 120.98 81.8221 120.896 81.8221 120.35V112.958C82.7461 113.378 83.7961 113.798 85.0561 113.798C91.3561 113.798 94.0441 109.85 94.0441 102.584ZM86.7361 102.71C86.7361 107.876 85.8121 109.01 84.0061 109.01C83.2921 109.01 82.4941 108.884 81.8221 108.59V97.838C82.7881 97.082 83.6281 96.83 84.3421 96.83C85.6861 96.83 86.7361 98.258 86.7361 102.71ZM116.581 103.592C116.581 95.864 113.767 91.538 107.131 91.538C100.663 91.538 96.7991 96.326 96.7991 102.794C96.7991 109.598 100.369 113.714 107.341 113.714C109.651 113.714 112.717 113.252 115.573 111.32C115.867 111.152 115.993 111.026 115.993 110.858C115.993 110.774 115.951 110.648 115.867 110.522L113.977 106.994C113.809 106.7 113.641 106.532 113.431 106.532C113.305 106.532 113.179 106.574 112.969 106.7C111.373 107.582 110.071 108.254 107.551 108.254C105.451 108.254 104.275 107.12 104.023 104.18H115.909C116.329 104.18 116.581 104.138 116.581 103.592ZM109.483 99.686H104.023C104.443 97.04 105.115 96.158 106.879 96.158C108.517 96.158 109.315 96.956 109.483 99.686ZM139.437 112.37V98.594C139.437 94.1 137.421 91.538 132.717 91.538C130.617 91.538 128.769 92.21 126.963 93.806C126.459 92.084 125.913 91.538 125.409 91.538C125.283 91.538 125.157 91.538 125.031 91.58L119.697 92.714C119.445 92.756 119.361 92.84 119.361 93.05C119.361 93.974 120.117 95.738 120.117 98.594V112.454C120.117 112.916 120.159 113 120.747 113H127.047C127.635 113 127.677 112.916 127.677 112.58V97.838C128.769 97.04 129.567 96.746 130.449 96.746C131.415 96.746 131.877 97.502 131.877 98.762V112.37C131.877 112.916 131.919 113 132.507 113H138.975C139.395 113 139.437 112.916 139.437 112.37ZM175.256 109.766V97.502C175.256 96.872 175.172 96.704 174.458 96.704H164.756C163.958 96.704 163.874 96.788 163.874 97.586V102.248C163.874 102.962 163.958 103.004 164.672 103.004L168.032 103.046V106.994C167.402 107.204 166.394 107.33 165.848 107.33C161.648 107.33 161.102 101.66 161.102 98.384C161.102 91.748 163.244 90.236 165.764 90.236C168.242 90.236 170.048 91.286 171.392 91.958C171.56 92.042 171.77 92.168 171.98 92.168C172.106 92.168 172.232 92.126 172.316 91.958L174.668 87.044C174.71 86.918 174.752 86.834 174.752 86.75C174.752 86.54 174.626 86.288 174.458 86.162C172.358 84.356 168.62 83.474 165.554 83.474C157.07 83.474 152.996 89.186 152.954 98.762V98.93C152.954 108.38 156.944 113.714 165.47 113.714C169.208 113.714 175.256 111.74 175.256 109.766ZM199.123 102.668C199.123 96.032 195.553 91.538 188.917 91.538C182.281 91.538 178.543 96.032 178.543 102.584C178.543 109.304 182.155 113.714 188.875 113.714C195.385 113.714 199.123 109.136 199.123 102.668ZM191.647 102.626C191.647 107.288 190.597 108.59 188.833 108.59C187.069 108.59 186.019 107.33 186.019 102.668C186.019 97.922 187.069 96.662 188.833 96.662C190.597 96.662 191.647 97.964 191.647 102.626ZM214.481 111.488L213.389 107.162C213.347 106.952 213.221 106.91 213.053 106.91C212.759 106.91 211.793 107.372 210.827 107.372C210.491 107.372 210.239 106.994 210.239 106.448V83.39C210.239 82.802 210.197 82.634 209.861 82.634C209.735 82.634 209.567 82.634 209.357 82.676L203.057 83.516C202.553 83.6 202.511 83.768 202.511 84.44L202.553 106.658C202.553 109.136 202.931 110.606 204.149 111.95C205.283 113.126 207.089 113.714 208.979 113.714C210.365 113.714 214.523 112.832 214.523 111.782C214.523 111.698 214.523 111.614 214.481 111.488ZM236.071 111.026C235.735 109.934 235.315 109.262 235.315 107.498V83.306C235.315 82.76 235.147 82.634 234.853 82.634C234.727 82.634 234.601 82.634 234.475 82.676L228.133 83.726C227.797 83.768 227.755 83.978 227.755 84.314V92.21C226.705 91.79 225.697 91.496 224.647 91.496C222.085 91.496 219.901 92.252 218.263 94.058C216.247 96.284 215.785 98.72 215.785 103.004C215.785 109.094 218.221 113.714 223.639 113.714C225.403 113.714 227.335 113.042 229.099 111.74C229.435 112.958 229.813 113.546 230.275 113.546C230.569 113.546 230.779 113.546 231.199 113.42L235.777 111.992C236.071 111.908 236.197 111.782 236.197 111.572C236.197 111.446 236.155 111.278 236.071 111.026ZM227.755 107.582C227.083 108.128 226.033 108.548 225.193 108.548C223.849 108.548 222.799 107.246 222.799 102.458C222.799 97.586 223.849 96.368 225.487 96.368C226.201 96.368 227.041 96.536 227.755 96.788V107.582ZM249.839 84.608V84.356C249.839 83.852 249.671 83.726 248.957 83.726H241.733C241.019 83.726 240.893 83.81 240.893 84.314L241.943 101.114C241.985 101.828 242.069 101.954 242.783 101.954H247.949C248.663 101.954 248.747 101.828 248.789 101.114L249.839 84.608ZM250.259 109.598C250.259 106.952 248.075 104.768 245.429 104.768C242.783 104.768 240.599 106.952 240.599 109.598C240.599 112.244 242.783 114.428 245.429 114.428C248.075 114.428 250.259 112.244 250.259 109.598Z" fill="url(#paint0_linear)"/>
</g>
<defs>
<filter id="filter0_d" x="0.0217285" y="0.187988" width="251.244" height="125.632" filterUnits="userSpaceOnUse" color-interpolation-filters="sRGB">
<feFlood flood-opacity="0" result="BackgroundImageFix"/>
<feColorMatrix in="SourceAlpha" type="matrix" values="0 0 0 0 0 0 0 0 0 0 0 0 0 0 0 0 0 0 127 0"/>
<feOffset dx="-2" dy="2"/>
<feGaussianBlur stdDeviation="1"/>
<feColorMatrix type="matrix" values="0 0 0 0 0.407789 0 0 0 0 0.153002 0 0 0 0 0.000130266 0 0 0 0.75 0"/>
<feBlend mode="normal" in2="BackgroundImageFix" result="effect1_dropShadow"/>
<feBlend mode="normal" in="SourceGraphic" in2="effect1_dropShadow" result="shape"/>
</filter>
<linearGradient id="paint0_linear" x1="271.44" y1="46.88" x2="82.6781" y2="288.8" gradientUnits="userSpaceOnUse">
<stop offset="0.34855" stop-color="white"/>
<stop offset="0.806911" stop-color="#FFE686"/>
<stop offset="1" stop-color="#F7B545"/>
</linearGradient>
</defs>
</svg>
